<svg width="512" height="512" viewBox="0 0 512 512" fill="none" xmlns="http://www.w3.org/2000/svg">
<rect x="54" y="53.1147" width="404.885" height="404.885" rx="64" fill="#F5EBDC"/>
<mask id="mask0_13_3" style="mask-type:alpha" maskUnits="userSpaceOnUse" x="54" y="53" width="405" height="405">
<rect x="54" y="53.1147" width="404.885" height="404.885" rx="64" fill="#F5EBDC"/>
</mask>
<g mask="url(#mask0_13_3)">
<rect x="54.1147" y="423.475" width="404.771" height="34.41" fill="#DFD2BE"/>
</g>
<mask id="mask1_13_3" style="mask-type:alpha" maskUnits="userSpaceOnUse" x="54" y="53" width="405" height="405">
<rect x="54.1147" y="457.885" width="404.885" height="404.885" rx="64" transform="rotate(-90 54.1147 457.885)" fill="#F5EBDC"/>
</mask>
<g mask="url(#mask1_13_3)">
<rect x="425.381" y="445.208" width="404.771" height="34.41" transform="rotate(-90 425.381 445.208)" fill="#DFD2BE"/>
</g>
<path d="M258.578 115.596C212.472 115.596 183.62 137.882 159.816 164.727C140.57 182.961 109.153 268.054 93.9585 299.457H125.866V376.953H258.578C330.185 376.953 388.234 318.9 388.234 247.287C388.234 175.675 330.185 115.596 258.578 115.596ZM256.572 141.934C314.742 141.934 361.898 190.836 361.898 249.125C361.898 307.414 314.742 354.666 256.572 354.666H150.79C150.79 333.549 151.802 308.01 151.802 282.472H128.921C141.264 256.911 156.958 203.257 176.53 181.949C196.102 160.64 219.118 141.934 256.572 141.934Z" fill="#A33434"/>
<path d="M328.222 240.447C332.771 236.24 332.253 228.161 327.407 225.382C328.747 221.446 326.512 216.606 322.655 214.455C320.834 213.44 322.875 212.897 323.204 210.946C323.502 209.183 323.617 207.316 323.373 205.535C322.959 202.52 321.6 199.8 319.264 197.821C318.13 196.86 316.774 196.106 315.361 195.645C314.283 195.292 312.383 195.441 311.751 194.551C311.033 193.54 310.952 191.316 310.487 190.127C309.885 188.582 309.099 187.082 308.144 185.726C304.826 181.008 297.909 179.238 292.291 180.497C291.19 178.388 291.157 175.377 289.036 174.201C286.11 172.58 281.805 172.502 278.472 172.482C276.301 171.736 274.087 172.678 271.834 172.954C270.458 172.805 269.387 172.165 268.105 171.33C266.184 170.081 264.312 168.873 261.974 169.058C260.767 168.473 259.487 168.031 258.021 167.92C253.876 167.606 250.059 169.361 246.53 171.318C243.697 172.89 241.435 173.114 238.249 172.579C236.343 172.258 234.466 172.02 232.528 172.073C228.993 172.17 225.328 173.164 222.683 175.614C222.051 176.2 221.601 176.904 221.023 177.527C219.686 178.971 218.805 179.124 216.953 178.951C215.135 178.781 213.427 178.668 211.616 179.027C208.514 179.645 205.54 181.189 203.267 183.376C200.993 184.121 199.546 186.109 198.79 188.519C198.178 190.47 198.065 192.541 197.448 194.489C196.744 196.712 195.2 198.315 193.714 200.041C189.211 205.27 187.869 212.471 191.082 218.766C191.775 220.124 193.611 221.741 193.81 223.233C193.931 224.137 193.542 225.357 193.542 226.305C193.542 227.212 193.6 228.111 193.747 229.007C194.288 232.313 195.754 235.49 198.004 237.981C202.574 243.046 207.895 245.463 217.645 241.535C218.373 249.681 223.119 253.282 228.728 256.301C235.828 260.123 243.499 258.796 251.193 259.467C256.137 259.898 260.227 261.945 263.056 265.288C263.211 265.544 263.361 265.803 263.5 266.065C264.423 267.802 265.102 269.764 266.32 271.321C266.508 271.924 266.682 272.538 266.819 273.18C267.164 274.79 267.336 276.461 267.285 278.109C267.232 279.79 266.645 281.624 267.113 283.281C268.018 286.481 272.526 287.08 275.32 287.445C279.063 287.933 281.981 287.105 283.267 283.261C283.996 281.083 283.023 278.412 283.142 276.076C287.825 277.159 294.393 276.879 298.924 275.718C304.214 274.362 309.189 272.094 311.792 267.186C311.926 266.936 312.217 266.315 312.2 266.1C312.417 265.494 314.16 263.109 314.237 262.436C317.962 261.949 319.693 261.901 322.587 259.382C324.947 257.328 327.382 252.691 327.068 249.609C330.032 248.379 329.676 248.088 330.259 244.859C330.71 242.359 330.174 241.469 328.222 240.447Z" fill="#CF3F3F"/>
<path d="M328.222 240.447C332.771 236.24 332.253 228.161 327.407 225.382C328.747 221.446 326.512 216.606 322.655 214.455C320.834 213.44 322.875 212.897 323.204 210.946C323.502 209.183 323.617 207.316 323.373 205.535C322.959 202.52 321.6 199.8 319.264 197.821C318.13 196.86 316.774 196.106 315.361 195.645C314.283 195.292 312.383 195.441 311.751 194.551C311.033 193.54 310.952 191.316 310.487 190.127C309.885 188.582 309.099 187.082 308.144 185.726C304.826 181.008 297.909 179.238 292.291 180.497C291.19 178.388 291.157 175.377 289.036 174.201C286.11 172.58 281.805 172.502 278.472 172.482C276.301 171.736 274.087 172.678 271.834 172.954C270.458 172.805 269.387 172.165 268.105 171.33C266.184 170.081 264.312 168.873 261.974 169.058C260.767 168.473 259.487 168.031 258.021 167.92C253.876 167.606 250.059 169.361 246.53 171.318C243.697 172.89 241.435 173.114 238.249 172.579C236.343 172.258 234.466 172.02 232.528 172.073C228.993 172.17 225.328 173.164 222.683 175.614C222.051 176.2 221.601 176.904 221.023 177.527C219.686 178.971 218.805 179.124 216.953 178.951C215.135 178.781 213.427 178.668 211.616 179.027C208.514 179.645 205.54 181.189 203.267 183.376C200.993 184.121 199.546 186.109 198.79 188.519C198.178 190.47 198.065 192.541 197.448 194.489C196.744 196.712 195.2 198.315 193.714 200.041C189.211 205.27 187.869 212.471 191.082 218.766C191.775 220.124 193.611 221.741 193.81 223.233C193.931 224.137 193.542 225.357 193.542 226.305C193.542 227.212 193.6 228.111 193.747 229.007C194.288 232.313 195.754 235.49 198.004 237.981C202.574 243.046 207.895 245.463 217.645 241.535C218.373 249.681 223.119 253.282 228.728 256.301C235.828 260.123 243.499 258.796 251.193 259.467C256.137 259.898 260.227 261.945 263.056 265.288C263.211 265.544 263.361 265.803 263.5 266.065C264.423 267.802 265.102 269.764 266.32 271.321C266.508 271.924 266.682 272.538 266.819 273.18C267.164 274.79 267.336 276.461 267.285 278.109C267.232 279.79 266.645 281.624 267.113 283.281C268.018 286.481 272.526 287.08 275.32 287.445C279.063 287.933 281.981 287.105 283.267 283.261C283.996 281.083 283.023 278.412 283.142 276.076C287.825 277.159 294.393 276.879 298.924 275.718C304.214 274.362 309.189 272.094 311.792 267.186C311.926 266.936 312.217 266.315 312.2 266.1C312.417 265.494 314.16 263.109 314.237 262.436C317.962 261.949 319.693 261.901 322.587 259.382C324.947 257.328 327.382 252.691 327.068 249.609C330.032 248.379 329.676 248.088 330.259 244.859C330.71 242.359 330.174 241.469 328.222 240.447Z" fill="#CF3F3F"/>
<path d="M329.429 242.153C329.089 241.189 328.457 240.404 327.716 239.717C327.181 239.221 326.507 238.841 326.006 238.312C325.115 237.373 324.988 236.421 324.502 235.306C323.571 233.173 321.964 232.378 319.866 231.668C318.61 231.243 317.875 230.986 317.047 229.895C316.308 228.922 315.9 227.933 314.62 227.6C311.971 226.91 310.514 230.604 307.961 228.39C305.55 226.298 305.155 221.277 304.397 218.334C303.075 213.203 302.461 204.822 296.501 202.808C294.49 202.128 292.616 202.673 290.887 203.755C289.731 204.477 288.488 205.775 286.979 205.306C285.637 204.888 284.719 203.229 283.779 202.276C282.294 200.77 280.172 199.48 277.979 200.031C275.459 200.666 275.146 203.189 274.179 205.197C272.66 208.347 269.353 211.339 265.695 209.879C263.328 208.934 260.821 207.453 258.547 209.522C256.702 211.2 256.581 216.123 253.003 214.309C250.725 213.154 250.725 209.889 248.099 208.979C245.843 208.198 243.62 209.679 242.515 211.587C240.993 214.216 241.506 217.847 238.108 219.014C231.33 221.341 231.235 211.63 227.423 208.55C226.668 207.941 225.686 208.19 225.068 208.839C224.089 209.869 223.569 211.053 223.222 212.414C222.838 213.923 222.856 215.99 221.824 217.225C219.515 219.99 213.508 216.444 211.03 215.351C203.639 212.091 196.25 206.744 196.161 197.848C196.151 196.825 194.617 196.919 194.445 197.838C194.396 198.099 194.359 198.357 194.325 198.614C194.119 198.685 193.92 198.807 193.745 199.004C190.199 203.004 188.648 208.528 189.701 213.795C190.288 216.735 192.03 219.048 192.976 221.832C194.009 224.873 193.499 228.233 194.411 231.343C197.257 241.04 208.571 247.155 217.373 241.409C219.58 245.981 222.093 250.567 226.256 253.622C231.086 257.167 237.516 258.593 243.396 259.031C246.563 259.267 249.781 258.661 252.92 259.048C256.282 259.463 259.138 261.489 261.201 264.097C264.595 268.39 265.157 273.48 266.666 278.542C267.856 282.538 270.459 286.801 275.167 286.766C279.391 286.736 283.331 283.142 283.315 278.837C283.311 277.841 282.847 276.824 282.902 275.851C282.994 274.215 283.589 274.435 285.014 274.655C285.55 274.737 286.276 275.103 286.76 275.272C289.699 276.297 292.728 277.297 295.885 277.115C300.909 276.826 306.355 273.39 309.417 269.765C311.128 267.739 313.219 262.708 313.626 262.571C315.302 262.013 317.795 261.757 320.199 260.551C322.052 259.621 323.737 258.437 324.806 256.618C325.558 255.338 325.797 253.929 326.269 252.543C326.79 251.008 327.633 249.657 328.371 248.223C329.325 246.369 330.163 244.236 329.429 242.153Z" fill="#A33434"/>
<path d="M284.416 176.057C283.781 175.943 283.126 176.57 283.244 177.214C283.479 178.5 284.188 179.643 284.444 180.923C284.708 182.25 284.454 183.607 284.693 184.926C284.846 185.77 285.738 186.151 286.455 185.68C289.732 183.528 288.22 176.738 284.416 176.057Z" fill="white"/>
<path d="M283.205 187.719C282.952 188.025 282.639 188.267 282.324 188.506C282.01 188.745 281.701 189.014 281.345 189.188C280.615 189.543 280.82 190.788 281.717 190.639C282.385 190.528 283.024 190.298 283.504 189.803C283.951 189.343 284.182 188.809 284.332 188.193C284.49 187.549 283.574 187.271 283.205 187.719Z" fill="white"/>
<path d="M206.205 185.669C205.152 185.652 204.432 185.645 203.665 186.482C202.956 187.255 202.765 188.214 202.877 189.236C202.948 189.884 203.923 190.235 204.309 189.633C204.666 189.074 205.124 188.577 205.508 188.035C205.719 187.737 205.958 187.46 206.085 187.111C206.198 186.804 206.234 186.509 206.436 186.236C206.58 186.042 206.488 185.673 206.205 185.669Z" fill="white"/>
<path d="M318.554 214.937C318.175 213.737 317.196 212.24 315.8 212.187C315.073 212.158 314.252 212.709 314.419 213.549C314.59 214.409 315.196 215.048 315.455 215.875C315.681 216.596 315.89 217.465 315.958 218.218C316.043 219.165 317.235 219.367 317.802 218.729C318.794 217.613 319.001 216.358 318.554 214.937Z" fill="white"/>
<path d="M317.578 221.61C317.433 220.892 316.644 220.478 316.009 220.938C315.804 221.086 315.644 221.282 315.505 221.492C315.442 221.596 315.381 221.701 315.321 221.807C315.307 221.834 315.302 221.841 315.298 221.848C315.249 221.926 315.197 222.002 315.147 222.079C314.93 222.424 314.829 222.765 314.483 223.072C314.176 223.346 314.042 223.761 314.26 224.137C314.455 224.474 314.905 224.687 315.284 224.507C315.84 224.245 316.446 223.958 316.864 223.5C317.3 223.022 317.712 222.275 317.578 221.61Z" fill="white"/>
<path d="M312.776 263.319C311.023 267.372 308.101 270.871 304.385 273.269C300.411 275.834 295.685 276.983 290.972 276.647C288.173 276.448 285.413 275.707 282.894 274.472C282.001 274.034 281.238 275.294 282.107 275.819C282.049 275.784 281.974 275.714 281.949 275.653L281.989 275.72C281.992 275.718 281.974 275.657 282.016 275.803C282.065 275.985 282.104 276.19 282.126 276.357C282.203 276.956 282.209 277.568 282.211 278.171C282.215 279.467 282.151 280.766 282.029 282.057C281.808 284.378 280.487 287.763 277.441 287.408C275.118 287.138 272.318 286.799 269.999 285.966C268.921 285.578 268.522 284.399 268.319 283.3C268.03 281.733 268.112 280.116 268.04 278.532C267.962 276.829 267.554 275.183 267.059 273.556C266.478 271.654 265.731 269.793 264.804 268.032C263.039 264.68 260.456 261.42 257.062 259.603C255.534 258.785 253.856 258.413 252.127 258.418C250.172 258.423 248.228 258.747 246.267 258.765C242.053 258.803 237.815 258.283 233.746 257.181C230.005 256.169 226.26 254.666 223.423 251.946C221.155 249.771 219.703 246.974 219.027 243.92C218.864 243.18 218.744 242.433 218.664 241.681C218.558 240.693 216.997 240.682 217.104 241.681C217.455 244.957 218.436 248.173 220.408 250.853C222.735 254.016 226.05 256.108 229.678 257.501C233.805 259.085 238.232 259.912 242.632 260.214C244.761 260.359 246.902 260.371 249.03 260.209C250.941 260.064 252.83 259.765 254.709 260.309C256.549 260.84 258.148 262.064 259.499 263.385C260.99 264.841 262.208 266.542 263.212 268.364C265.024 271.648 266.403 275.476 266.505 279.25C266.578 281.926 266.305 286.169 269.343 287.378C270.652 287.899 272.091 288.131 273.472 288.372C274.766 288.599 276.068 288.795 277.372 288.958C280.79 289.387 283.013 286.12 283.468 283.077C283.65 281.856 283.715 280.61 283.753 279.376C283.791 278.123 283.854 276.772 283.559 275.541C283.458 275.121 283.279 274.705 282.894 274.472C282.632 274.921 282.369 275.37 282.107 275.819C286.845 278.141 292.267 278.829 297.438 277.773C302.161 276.808 306.504 274.291 309.772 270.759C311.583 268.801 313.065 266.553 314.123 264.106C314.517 263.194 313.174 262.4 312.776 263.319Z" fill="#211D1D"/>
<path d="M253.172 259.49C261.653 256.994 270.461 258.027 279.045 259.375C283.009 259.997 286.997 260.52 290.944 261.248C294.644 261.929 298.328 262.705 302.066 263.158C306.115 263.648 310.329 263.767 314.275 262.575C315.233 262.285 314.824 260.78 313.86 261.072C310.395 262.119 306.722 262.083 303.152 261.72C299.391 261.338 295.686 260.554 291.975 259.859C288.07 259.127 284.127 258.609 280.204 257.989C275.942 257.314 271.663 256.666 267.348 256.453C262.435 256.209 257.49 256.594 252.757 257.986C251.796 258.27 252.205 259.774 253.172 259.49Z" fill="#211D1D"/>
<path d="M262.535 257.671C262.807 260.452 264.708 262.835 267.398 263.647C267.243 263.266 267.088 262.884 266.933 262.502C264.994 266.276 266.842 270.934 270.922 272.224C271.392 272.373 271.873 272.447 272.362 272.502C272.787 272.548 273.261 272.548 273.616 272.82C274.017 273.127 274.282 273.633 274.657 273.98C274.981 274.281 275.341 274.555 275.718 274.786C277.354 275.796 279.395 276.07 281.238 275.53C282.199 275.249 281.79 273.743 280.823 274.027C279.299 274.474 277.67 274.217 276.346 273.338C275.626 272.861 275.223 272.116 274.565 271.591C273.893 271.057 273.088 271.037 272.274 270.933C268.676 270.469 266.629 266.5 268.279 263.289C268.512 262.836 268.314 262.295 267.813 262.144C265.834 261.546 264.298 259.742 264.095 257.671C263.998 256.682 262.437 256.671 262.535 257.671Z" fill="#211D1D"/>
<path d="M218.914 240.017C218.62 234.757 219.478 228.474 224.622 225.722C225.724 225.132 226.864 224.906 228.099 224.829C228.745 224.789 229.377 224.711 229.967 224.426C230.578 224.13 231.074 223.644 231.583 223.204C233.403 221.633 235.655 220.639 238.011 220.202C240.359 219.766 242.825 219.942 245.087 220.703C246.316 221.117 247.336 221.85 248.508 222.365C249.812 222.936 250.947 222.5 251.96 221.6C254.079 219.717 256.166 217.924 258.744 216.68C261.171 215.511 263.869 214.928 266.562 215.204C267.99 215.352 269.411 215.772 270.665 216.471C271.952 217.188 273.122 218.396 274.628 217.385C275.235 216.977 275.75 216.411 276.306 215.938C276.898 215.434 277.514 214.96 278.173 214.545C279.469 213.729 280.94 213.167 282.479 213.533C282.982 213.652 283.452 213.3 283.467 212.781C283.55 209.851 285.803 207.308 288.661 206.764C289.646 206.576 289.229 205.073 288.247 205.26C284.704 205.935 282.009 209.201 281.907 212.781C282.236 212.531 282.565 212.28 282.894 212.029C280.001 211.34 277.413 212.971 275.287 214.765C274.803 215.172 274.359 215.679 273.841 216.039C273.161 216.512 272.554 215.806 271.983 215.441C270.862 214.725 269.593 214.217 268.298 213.923C262.599 212.628 257.073 215.171 252.775 218.774C252.241 219.221 251.725 219.689 251.217 220.165C250.78 220.574 250.263 221.145 249.608 221.091C248.958 221.037 248.33 220.478 247.772 220.179C247.211 219.879 246.629 219.62 246.036 219.393C243.672 218.485 241.059 218.227 238.554 218.551C236.103 218.867 233.706 219.729 231.682 221.161C230.602 221.925 229.708 223.134 228.319 223.257C226.976 223.375 225.761 223.501 224.51 224.05C221.922 225.184 219.896 227.448 218.768 230.008C217.384 233.15 217.165 236.63 217.355 240.017C217.41 241.015 218.97 241.021 218.914 240.017Z" fill="#211D1D"/>
<path d="M225.743 236.18C231.099 241.133 239.719 241.917 245.847 237.925C245.647 237.951 245.447 237.977 245.246 238.004C249.964 238.697 255.054 238.571 259.613 237.059C263.076 235.909 266.599 233.659 267.454 229.871C266.979 229.933 266.504 229.996 266.028 230.058C269.472 234.721 276.207 234.595 281.389 233.906C286.601 233.212 291.582 231.281 295.604 227.841C298.214 225.608 300.302 222.82 301.912 219.798C302.384 218.912 301.037 218.124 300.565 219.011C298.006 223.813 294.222 227.766 289.261 230.089C285.022 232.076 280.092 232.871 275.43 232.651C272.51 232.514 269.208 231.753 267.375 229.271C267.009 228.775 266.111 228.743 265.95 229.457C265.373 232.015 263.329 233.717 261.054 234.813C258.288 236.145 255.096 236.639 252.056 236.795C250.341 236.883 248.621 236.838 246.913 236.659C246.465 236.612 246.006 236.506 245.557 236.486C245.16 236.469 244.913 236.681 244.587 236.878C244.008 237.227 243.406 237.539 242.781 237.799C240.327 238.82 237.585 239.137 234.953 238.795C231.953 238.405 229.072 237.136 226.846 235.078C226.11 234.397 225.005 235.497 225.743 236.18Z" fill="#211D1D"/>
<path d="M231.805 241.792C229.921 243.307 229.469 246.263 230.738 248.3C230.961 248.657 231.435 248.796 231.805 248.579C232.162 248.371 232.308 247.871 232.085 247.513C232.019 247.406 231.956 247.298 231.899 247.186C231.877 247.142 231.856 247.096 231.835 247.051C231.89 247.169 231.822 247.02 231.813 246.996C231.73 246.774 231.666 246.545 231.622 246.313C231.623 246.317 231.59 246.104 231.601 246.194C231.614 246.289 231.592 246.093 231.591 246.074C231.581 245.95 231.576 245.824 231.576 245.7C231.576 245.587 231.581 245.474 231.59 245.362C231.595 245.299 231.601 245.236 231.608 245.175C231.594 245.289 231.61 245.175 231.619 245.121C231.661 244.887 231.721 244.655 231.799 244.431C231.815 244.383 231.833 244.337 231.85 244.29C231.931 244.068 231.817 244.357 231.873 244.234C231.926 244.12 231.981 244.009 232.043 243.9C232.098 243.802 232.157 243.707 232.22 243.613C232.216 243.618 232.335 243.449 232.29 243.51C232.24 243.577 232.358 243.427 232.369 243.414C232.531 243.224 232.712 243.052 232.908 242.895C233.236 242.631 233.183 242.068 232.908 241.792C232.583 241.468 232.134 241.528 231.805 241.792Z" fill="#211D1D"/>
<path d="M247.166 250.572C248.076 250.869 248.908 250.481 249.776 250.234C250.844 249.931 251.845 250.406 252.818 250.829C254.817 251.698 256.766 252.19 258.957 251.875C261.088 251.568 262.827 250.548 264.448 249.18C265.233 248.517 266.028 247.796 266.996 247.409C267.839 247.071 268.752 247.026 269.647 247.117C271.536 247.31 273.324 248.074 275.18 248.44C277.216 248.84 279.029 248.656 280.879 247.689C281.903 247.154 282.878 246.59 284.044 246.427C285.188 246.267 286.363 246.426 287.48 246.684C289.481 247.147 291.383 248.073 293.42 248.364C295.418 248.65 297.464 248.515 299.439 248.133C301.358 247.762 303.32 247.12 304.922 245.972C305.73 245.392 304.952 244.039 304.134 244.625C301.407 246.581 297.545 247.19 294.259 246.904C292.335 246.736 290.542 245.89 288.694 245.384C286.547 244.798 284.217 244.496 282.096 245.345C281.081 245.753 280.174 246.399 279.15 246.783C278.295 247.104 277.4 247.162 276.497 247.075C274.634 246.894 272.869 246.151 271.045 245.775C269.206 245.394 267.329 245.394 265.651 246.337C263.859 247.344 262.584 249.046 260.642 249.825C258.423 250.714 256.082 250.551 253.912 249.617C252.847 249.159 251.7 248.549 250.511 248.547C249.995 248.545 249.486 248.687 248.999 248.845C248.542 248.993 248.061 249.225 247.581 249.069C246.625 248.756 246.215 250.262 247.166 250.572Z" fill="#211D1D"/>
<path d="M213.148 209.152C217.249 209.911 220.371 206.706 222.582 203.696C223.721 202.143 224.811 200.52 226.296 199.268C227.809 197.992 229.734 197.361 231.685 197.18C233.988 196.966 236.307 197.242 238.59 197.541C239.012 197.596 239.366 197.143 239.37 196.761C239.375 196.295 239.006 196.036 238.59 195.982C234.746 195.479 230.536 195.035 226.978 196.935C223.495 198.794 221.985 202.563 219.295 205.242C217.806 206.724 215.759 208.056 213.563 207.65C212.582 207.468 212.161 208.97 213.148 209.152Z" fill="#211D1D"/>
<path d="M240.759 180.737C242.706 179.855 245.057 180.842 245.763 182.859C246.529 185.046 244.981 187.107 243.82 188.836C241.564 192.197 238.911 195.75 239.372 200.036C239.594 202.099 240.468 203.956 242.171 205.192C242.984 205.783 243.763 204.431 242.958 203.847C241.452 202.753 240.874 200.847 240.881 199.056C240.889 196.903 241.755 194.948 242.847 193.132C244.918 189.687 249.595 185.145 246.501 180.966C244.979 178.91 242.26 178.354 239.972 179.391C239.059 179.804 239.851 181.148 240.759 180.737Z" fill="#211D1D"/>
<path d="M257.801 175.532C260.062 177.1 261.454 179.783 261.486 182.525C261.498 183.528 263.057 183.53 263.046 182.525C263.007 179.205 261.31 176.072 258.588 174.185C258.242 173.946 257.722 174.122 257.521 174.465C257.295 174.853 257.454 175.291 257.801 175.532Z" fill="#211D1D"/>
<path d="M267.528 180.135C263.95 179.728 260.956 183.137 259.909 186.225C259.64 187.016 259.476 187.888 259.558 188.725C259.599 189.144 259.887 189.505 260.338 189.505C260.727 189.505 261.159 189.147 261.117 188.725C261.098 188.525 261.092 188.326 261.1 188.126C261.104 188.021 261.113 187.915 261.124 187.81C261.143 187.638 261.114 187.852 261.142 187.693C261.217 187.26 261.336 186.836 261.489 186.424C261.79 185.612 262.293 184.749 262.867 184.044C264.047 182.6 265.668 181.482 267.528 181.693C267.947 181.741 268.308 181.301 268.308 180.914C268.308 180.453 267.948 180.182 267.528 180.135Z" fill="#211D1D"/>
<path d="M259.912 186.507C257.161 187.513 255.157 189.746 254.073 192.428C252.773 195.646 253.029 199.274 253.815 202.583C254.048 203.559 255.552 203.145 255.32 202.169C254.622 199.233 254.386 196.087 255.438 193.203C256.271 190.919 258.006 188.859 260.326 188.009C261.261 187.667 260.857 186.16 259.912 186.507Z" fill="#211D1D"/>
<path d="M209.577 193.351C209.971 191.152 210.802 189.033 212.26 187.316C213.563 185.781 215.229 184.627 217.064 183.815C219.072 182.926 221.358 182.361 223.558 182.392C225.001 182.412 226.424 182.683 227.777 183.182C228.4 183.412 228.999 183.788 229.683 183.742C230.325 183.699 230.753 183.276 231.104 182.779C232.628 180.624 235.348 180.595 237.764 180.657C238.768 180.683 238.767 179.124 237.764 179.098C235.489 179.039 232.908 179.1 231.029 180.558C230.585 180.903 230.226 181.308 229.907 181.77C229.716 182.048 229.681 182.182 229.36 182.151C228.971 182.114 228.45 181.771 228.083 181.638C226.71 181.146 225.247 180.884 223.79 180.838C219.388 180.699 214.487 182.585 211.487 185.841C209.663 187.82 208.545 190.299 208.073 192.936C207.898 193.917 209.401 194.338 209.577 193.351Z" fill="#211D1D"/>
<path d="M268.529 180.624C268.949 178.186 270.599 176.35 272.799 175.306C274.531 174.484 276.903 174.045 278.711 174.836C279.621 175.235 280.416 173.892 279.498 173.49C277.146 172.461 274.404 172.861 272.127 173.905C269.551 175.088 267.513 177.374 267.024 180.209C266.855 181.19 268.358 181.613 268.529 180.624Z" fill="#211D1D"/>
<path d="M255.969 204.78C257.835 204.811 259.679 205.769 260.712 207.338C261.821 209.025 261.96 211.263 261.065 213.073C260.622 213.97 261.966 214.761 262.411 213.86C263.547 211.565 263.483 208.716 262.058 206.551C260.719 204.516 258.401 203.261 255.969 203.221C254.965 203.205 254.965 204.764 255.969 204.78Z" fill="#211D1D"/>
<path d="M243.502 206.838C245.949 208.016 246.488 211.117 244.564 213.048C243.722 213.894 242.726 214.668 242.495 215.912C242.274 217.103 242.69 218.364 243.624 219.147C244.389 219.788 245.497 218.691 244.727 218.045C243.754 217.23 243.821 216.019 244.652 215.132C245.589 214.134 246.55 213.36 247.026 212.023C247.925 209.497 246.684 206.644 244.289 205.492C243.389 205.058 242.597 206.402 243.502 206.838Z" fill="#211D1D"/>
<path d="M225.2 210.132C226.184 210.611 227.212 211.12 227.955 211.946C228.802 212.887 228.578 214.053 228.739 215.214C229.061 217.536 230.538 219.63 232.607 220.73C233.493 221.2 234.282 219.855 233.394 219.383C232.388 218.848 231.568 218.067 230.998 217.078C230.393 216.028 230.257 214.964 230.207 213.776C230.156 212.551 229.735 211.496 228.853 210.631C228.036 209.83 227.007 209.282 225.987 208.785C225.089 208.347 224.297 209.691 225.2 210.132Z" fill="#211D1D"/>
<path d="M209.593 208.245C205.472 207.579 201.046 207.88 197.726 210.667C194.942 213.007 193.763 216.931 195.433 220.277C196.291 221.995 197.836 222.982 199.573 223.67C201.223 224.324 203.283 224.808 204.282 226.431C204.834 227.329 204.601 228.252 204.453 229.232C204.312 230.169 204.334 231.099 204.541 232.025C204.956 233.876 206.072 235.561 207.454 236.836C208.701 237.987 210.26 238.98 211.841 239.608C213.516 240.272 215.374 240.319 217.152 240.324C218.156 240.326 218.157 238.768 217.152 238.765C215.7 238.762 214.214 238.743 212.817 238.304C211.621 237.928 210.52 237.213 209.5 236.5C208.12 235.534 206.921 234.14 206.326 232.552C206.038 231.785 205.887 230.981 205.917 230.161C205.952 229.205 206.289 228.28 206.19 227.317C206.021 225.659 204.799 224.396 203.413 223.591C201.849 222.682 200.001 222.391 198.475 221.411C195.641 219.591 195.669 215.545 197.563 213.071C200.264 209.543 205.1 209.09 209.178 209.748C210.16 209.907 210.583 208.405 209.593 208.245Z" fill="#211D1D"/>
<path d="M201.907 208.681C201.189 205.249 200.626 201.234 202.67 198.128C204.366 195.55 207.744 194.246 210.734 194.935C211.711 195.161 212.128 193.658 211.149 193.431C207.557 192.604 203.702 194.065 201.533 197.038C199.006 200.504 199.58 205.165 200.403 209.095C200.608 210.077 202.112 209.661 201.907 208.681Z" fill="#211D1D"/>
<path d="M291.115 181.106C292.323 185.832 290.132 190.895 286.389 193.862C284.432 195.413 282.023 196.029 279.884 197.252C277.623 198.543 276.014 200.767 276.293 203.47C276.603 206.469 279.119 208.722 282.116 208.82C283.121 208.854 283.119 207.295 282.116 207.262C279.584 207.178 277.626 205.006 277.84 202.479C278.059 199.868 280.417 198.614 282.56 197.679C284.725 196.735 286.738 195.772 288.461 194.113C290.148 192.486 291.443 190.462 292.231 188.257C293.095 185.833 293.257 183.189 292.619 180.692C292.371 179.72 290.866 180.132 291.115 181.106Z" fill="#211D1D"/>
<path d="M291.42 190.586C296.525 188.254 302.8 190.172 305.673 194.986C307.029 197.258 307.521 199.837 307.209 202.454C306.883 205.191 306.004 207.873 304.991 210.424C303.98 212.972 302.763 215.446 301.391 217.818C300.887 218.687 302.235 219.473 302.738 218.605C305.553 213.743 308.039 208.265 308.745 202.649C309.484 196.774 306.215 190.933 300.598 188.839C297.373 187.638 293.751 187.816 290.633 189.239C289.721 189.656 290.513 191.001 291.42 190.586Z" fill="#211D1D"/>
<path d="M305.792 245.392C310.872 242.145 313.493 235.765 312.169 229.886C311.918 230.215 311.667 230.544 311.416 230.873C314.302 230.824 317.121 229.652 319.151 227.589C321.257 225.45 322.318 222.494 322.535 219.539C322.933 214.08 320.123 208.064 314.572 206.444C311.69 205.603 308.544 206.066 306.179 207.949C305.394 208.574 306.504 209.671 307.282 209.052C309.039 207.653 311.455 207.312 313.607 207.804C315.9 208.328 317.819 209.754 319.091 211.722C321.718 215.791 321.768 221.828 318.733 225.712C316.986 227.948 314.242 229.266 311.416 229.314C310.892 229.323 310.553 229.804 310.664 230.301C311.831 235.479 309.478 241.187 305.005 244.045C304.162 244.584 304.943 245.934 305.792 245.392Z" fill="#211D1D"/>
<path d="M312.051 231.573C314.835 232.269 317.244 234.089 318.711 236.553C320.347 239.302 320.703 242.655 319.936 245.734C319.694 246.708 321.197 247.124 321.44 246.149C322.306 242.671 321.907 238.871 320.057 235.767C318.391 232.967 315.632 230.861 312.465 230.07C311.492 229.827 311.076 231.33 312.051 231.573Z" fill="#211D1D"/>
<path d="M320.616 240.177C322.743 241.129 325.042 241.428 327.342 241.053C327.758 240.985 327.989 240.47 327.886 240.094C327.765 239.652 327.345 239.482 326.927 239.55C325.08 239.852 323.112 239.595 321.404 238.83C321.019 238.659 320.565 238.719 320.337 239.11C320.142 239.443 320.23 240.003 320.616 240.177Z" fill="#211D1D"/>
<path d="M302.367 262.685C307.527 262.813 311.13 257.954 310.912 253.059C310.583 253.309 310.254 253.56 309.925 253.81C315.9 255.891 322.886 254.249 327.336 249.765C328.043 249.051 326.942 247.949 326.233 248.663C322.149 252.777 315.807 254.211 310.34 252.307C309.872 252.144 309.331 252.575 309.352 253.059C309.533 257.118 306.702 261.234 302.367 261.127C301.362 261.102 301.363 262.661 302.367 262.685Z" fill="#211D1D"/>
<path d="M241.021 246.054C242.62 248.348 245.048 250.009 247.796 250.586C248.207 250.673 248.638 250.465 248.755 250.042C248.862 249.655 248.625 249.17 248.21 249.083C245.869 248.591 243.74 247.235 242.368 245.266C242.128 244.921 241.685 244.763 241.301 244.987C240.96 245.187 240.779 245.706 241.021 246.054Z" fill="#211D1D"/>
<path d="M244.336 248.622C242.165 250.367 241.243 253.465 242.04 256.123C242.327 257.082 243.832 256.673 243.544 255.708C242.898 253.555 243.654 251.16 245.44 249.724C245.768 249.46 245.714 248.897 245.44 248.622C245.115 248.297 244.666 248.357 244.336 248.622Z" fill="#211D1D"/>
<path d="M231.309 239.334C230.926 240.336 230.773 241.442 230.869 242.511C230.888 242.721 230.943 242.908 231.097 243.062C231.232 243.196 231.454 243.298 231.649 243.29C232.04 243.273 232.467 242.945 232.428 242.511C232.406 242.255 232.396 241.998 232.402 241.741C232.405 241.632 232.411 241.522 232.419 241.412C232.424 241.339 232.431 241.266 232.439 241.193C232.445 241.137 232.49 240.978 232.439 241.182C232.497 240.952 232.519 240.712 232.578 240.481C232.642 240.233 232.722 239.988 232.813 239.749C232.959 239.367 232.652 238.877 232.269 238.789C231.823 238.688 231.466 238.925 231.309 239.334Z" fill="#211D1D"/>
<path d="M194.87 222.335C190.324 226.509 192.8 233.533 196.068 237.653C199.186 241.584 204.022 244.52 209.136 244.542C212.384 244.557 215.375 243.303 217.909 241.329C218.7 240.712 217.589 239.616 216.806 240.227C214.815 241.777 212.418 242.821 209.881 242.964C207.619 243.091 205.36 242.563 203.332 241.568C199.311 239.596 195.967 235.987 194.542 231.718C193.605 228.909 193.652 225.569 195.973 223.437C196.714 222.757 195.609 221.657 194.87 222.335Z" fill="#211D1D"/>
<path d="M194.799 222.931C191.752 219.776 190.028 215.451 190.127 211.06C190.224 206.795 192.08 202.607 195.144 199.644C195.9 198.912 196.752 198.257 197.312 197.349C197.926 196.353 197.987 195.179 198.228 194.063C198.668 192.024 199.465 190.084 200.572 188.316C202.865 184.656 206.447 181.948 210.598 180.746C212.758 180.12 215.016 179.897 217.257 180.101C218.409 180.207 219.578 180.506 220.689 180.028C221.65 179.616 222.287 178.78 222.998 178.053C225.733 175.258 229.576 173.614 233.468 173.397C235.44 173.287 237.41 173.529 239.284 174.161C240.387 174.533 241.421 174.934 242.56 174.451C243.486 174.06 244.171 173.288 244.928 172.653C247.77 170.266 251.437 168.88 255.117 168.546C258.856 168.206 262.707 168.863 266.04 170.62C266.873 171.058 267.674 171.561 268.426 172.127C269.2 172.711 269.896 173.499 270.846 173.797C271.829 174.107 272.775 173.671 273.737 173.5C274.544 173.356 275.378 173.297 276.196 173.35C276.789 173.388 277.669 173.483 278.046 174.016C278.622 174.828 279.974 174.05 279.393 173.229C278.373 171.788 276.382 171.682 274.769 171.809C273.802 171.887 272.914 172.143 271.968 172.318C270.929 172.508 270.112 171.465 269.359 170.891C266.217 168.496 262.333 167.2 258.409 166.945C254.513 166.691 250.523 167.503 247.075 169.344C246.218 169.802 245.398 170.327 244.625 170.914C243.828 171.52 243.132 172.321 242.283 172.847C241.239 173.493 240.111 172.76 239.06 172.457C238.075 172.174 237.063 171.994 236.043 171.893C231.962 171.486 227.686 172.59 224.315 174.925C223.45 175.524 222.632 176.199 221.896 176.951C221.134 177.728 220.491 178.716 219.299 178.745C218.118 178.774 216.93 178.477 215.741 178.469C214.587 178.46 213.434 178.567 212.296 178.759C207.85 179.51 203.702 181.861 200.821 185.333C199.422 187.019 198.315 188.906 197.529 190.952C197.144 191.954 196.846 192.989 196.644 194.043C196.409 195.263 196.288 196.343 195.39 197.272C194.623 198.067 193.768 198.76 193.041 199.596C192.318 200.43 191.664 201.329 191.102 202.279C189.96 204.21 189.163 206.365 188.805 208.58C188.086 213.023 189.093 217.668 191.589 221.419C192.21 222.352 192.917 223.227 193.696 224.033C194.394 224.756 195.497 223.653 194.799 222.931Z" fill="#211D1D"/>
<path d="M214.77 195.06C218.022 195.208 221.217 196.391 223.76 198.43C224.089 198.693 224.543 198.751 224.863 198.43C225.136 198.157 225.194 197.592 224.863 197.328C221.98 195.016 218.466 193.669 214.77 193.502C213.767 193.456 213.769 195.015 214.77 195.06Z" fill="#211D1D"/>
<path d="M218.211 190.189C217.896 191.819 218.104 193.462 218.808 194.965C218.982 195.336 219.544 195.458 219.875 195.245C220.257 194.999 220.341 194.574 220.155 194.178C220.144 194.154 220.028 193.887 220.085 194.027C220.057 193.958 220.03 193.89 220.005 193.821C219.945 193.66 219.892 193.496 219.845 193.33C219.798 193.164 219.757 192.997 219.723 192.828C219.709 192.756 219.695 192.683 219.683 192.61C219.675 192.562 219.667 192.513 219.66 192.465C219.669 192.538 219.67 192.545 219.664 192.489C219.632 192.158 219.609 191.828 219.619 191.495C219.624 191.322 219.638 191.151 219.654 190.979C219.676 190.74 219.626 191.132 219.664 190.894C219.679 190.796 219.696 190.7 219.715 190.603C219.791 190.204 219.602 189.743 219.17 189.644C218.785 189.557 218.293 189.76 218.211 190.189Z" fill="#211D1D"/>
<path d="M318.421 228.261C320.621 228.03 322.849 228.727 324.472 230.244C325.205 230.929 326.311 229.829 325.575 229.142C323.671 227.364 321.021 226.429 318.421 226.703C318.003 226.746 317.641 227.03 317.641 227.482C317.641 227.869 318 228.306 318.421 228.261Z" fill="#211D1D"/>
<path d="M324.17 229.144C325.226 227.914 326.396 226.784 327.662 225.771C327.982 225.515 327.949 224.932 327.662 224.669C327.323 224.357 326.901 224.396 326.56 224.669C325.293 225.682 324.124 226.812 323.067 228.042C322.802 228.351 322.741 228.845 323.067 229.144C323.359 229.412 323.886 229.475 324.17 229.144Z" fill="#211D1D"/>
<path d="M246.146 172.062C249.619 170.858 253.336 171.906 256.337 173.825C257.186 174.368 257.969 173.019 257.125 172.479C253.798 170.352 249.573 169.228 245.731 170.558C244.788 170.885 245.193 172.391 246.146 172.062Z" fill="#211D1D"/>
<path d="M281.776 202.761C281.5 205.074 281.917 207.409 282.895 209.516C283.073 209.898 283.623 209.994 283.962 209.796C284.354 209.567 284.42 209.113 284.242 208.73C283.378 206.869 283.093 204.792 283.335 202.761C283.386 202.342 282.941 201.982 282.556 201.982C282.093 201.982 281.826 202.341 281.776 202.761Z" fill="#211D1D"/>
<path d="M279.304 174.648C283.865 171.806 290.312 175.413 291.054 180.514C291.199 181.504 292.702 181.083 292.559 180.1C291.671 174.001 283.86 169.973 278.516 173.302C277.666 173.831 278.448 175.181 279.304 174.648Z" fill="#211D1D"/>
<path d="M292.009 181.298C295.457 180.325 299.234 180.708 302.416 182.363C305.585 184.009 307.984 186.872 309.126 190.25C309.769 192.151 310.003 194.138 309.825 196.137C309.775 196.696 310.36 196.956 310.812 196.889C314.788 196.297 318.867 198.548 320.969 201.877C323.385 205.703 323.313 210.59 321.667 214.691C321.549 214.985 321.741 215.435 322.025 215.572C325.535 217.257 327.465 221.459 326.382 225.213C326.253 225.66 326.624 226.255 327.134 226.201C330.34 225.862 330.628 230.493 330.762 232.668C330.916 235.193 330.455 238.562 327.695 239.559C327.047 239.792 326.94 240.592 327.509 240.984C328.937 241.965 329.742 243.834 329.375 245.545C329.013 247.233 327.666 248.555 326.009 248.973C325.562 249.086 325.24 249.712 325.543 250.117C327.676 252.979 324.698 256.205 322.596 258.009C320.172 260.091 316.92 261.824 313.646 261.015C312.672 260.775 312.256 262.278 313.232 262.519C317.16 263.488 320.972 261.503 323.863 258.971C325.276 257.732 326.632 256.303 327.349 254.539C328.03 252.865 327.999 250.818 326.889 249.331C326.734 249.712 326.579 250.094 326.423 250.476C328.638 249.917 330.502 248.052 330.915 245.78C331.348 243.397 330.274 240.997 328.296 239.637C328.233 240.112 328.171 240.587 328.11 241.062C331.678 239.774 332.553 235.812 332.305 232.42C332.172 230.612 332.026 228.62 331.138 227C330.357 225.575 328.812 224.465 327.134 224.642C327.385 224.971 327.636 225.299 327.886 225.628C329.148 221.249 326.935 216.205 322.812 214.225C322.932 214.518 323.051 214.812 323.171 215.105C324.618 211.497 324.893 207.299 323.538 203.616C322.273 200.174 319.647 197.425 316.236 196.055C314.374 195.307 312.378 195.091 310.397 195.386C310.726 195.636 311.055 195.887 311.384 196.137C311.732 192.246 310.534 188.277 308.155 185.186C305.74 182.047 302.137 179.974 298.222 179.394C296.004 179.066 293.756 179.185 291.595 179.794C290.629 180.066 291.04 181.571 292.009 181.298Z" fill="#211D1D"/>
<path d="M425.677 349.719C444.522 358.43 457.566 377.245 457.566 399.054C457.566 429.153 432.718 453.554 402.066 453.554C380.426 453.554 361.68 441.391 352.527 423.648C366.764 423.805 380.632 423.054 389.066 423.054C417.066 423.054 425.066 403.554 425.066 384.554C425.066 376.484 425.754 363.379 425.677 349.719Z" fill="#DFD2BE"/>
</svg>
