<svg width="305" height="270" viewBox="0 0 305 270" fill="none" xmlns="http://www.w3.org/2000/svg">
<path d="M170.075 0C122.442 0 92.6331 23.0233 68.04 50.7559C48.1563 69.5934 15.6976 157.501 0 189.942H32.9648V270H170.075C244.056 270 304.028 210.027 304.028 136.047C304.028 62.0664 244.056 5.35517e-06 170.075 0ZM168.003 27.209C228.101 27.2091 276.819 77.7287 276.819 137.945C276.819 198.162 228.1 246.976 168.003 246.977H58.7148C58.7149 225.16 59.7617 198.778 59.7617 172.395H36.1221C48.874 145.988 65.0869 90.5602 85.3076 68.5469C105.528 46.5336 129.308 27.209 168.003 27.209Z" fill="#A33434"/>
<path d="M242.028 128.98C246.727 124.634 246.192 116.288 241.186 113.417C242.57 109.35 240.261 104.35 236.276 102.128C234.394 101.079 236.503 100.519 236.844 98.5037C237.151 96.6824 237.27 94.753 237.017 92.9132C236.59 89.7983 235.186 86.9885 232.773 84.9447C231.601 83.9516 230.2 83.1731 228.74 82.6961C227.627 82.3317 225.664 82.486 225.011 81.5665C224.269 80.522 224.185 78.2237 223.705 76.9957C223.083 75.3997 222.271 73.8507 221.284 72.4489C217.856 67.5757 210.71 65.7465 204.906 67.0473C203.768 64.8687 203.734 61.7583 201.543 60.5435C198.52 58.8686 194.073 58.7879 190.629 58.7675C188.386 57.997 186.098 58.9697 183.771 59.2552C182.349 59.1009 181.243 58.4395 179.918 57.5776C177.933 56.2866 176 55.0391 173.584 55.2306C172.337 54.6259 171.014 54.1693 169.5 54.0549C165.217 53.7304 161.274 55.5436 157.629 57.5652C154.701 59.1887 152.364 59.4201 149.073 58.8677C147.104 58.5361 145.164 58.2896 143.163 58.3446C139.51 58.4448 135.723 59.4716 132.991 62.003C132.338 62.6086 131.873 63.3357 131.276 63.9794C129.895 65.4708 128.984 65.6286 127.071 65.4504C125.193 65.2748 123.428 65.1578 121.557 65.5293C118.352 66.1668 115.28 67.7619 112.931 70.022C110.582 70.7908 109.087 72.8452 108.306 75.335C107.674 77.3504 107.557 79.4899 106.92 81.5018C106.192 83.7982 104.597 85.4545 103.062 87.2376C98.4094 92.6401 97.0235 100.079 100.342 106.582C101.058 107.985 102.956 109.655 103.161 111.196C103.286 112.131 102.884 113.391 102.884 114.371C102.884 115.308 102.944 116.236 103.096 117.162C103.655 120.577 105.17 123.859 107.493 126.433C112.215 131.665 117.712 134.162 127.786 130.105C128.538 138.52 133.441 142.24 139.236 145.358C146.572 149.307 154.496 147.936 162.446 148.629C167.554 149.074 171.779 151.19 174.702 154.643C174.862 154.907 175.017 155.174 175.161 155.446C176.114 157.24 176.816 159.266 178.074 160.876C178.269 161.498 178.448 162.133 178.59 162.795C178.946 164.459 179.124 166.185 179.071 167.887C179.017 169.624 178.41 171.519 178.893 173.23C179.828 176.537 184.485 177.156 187.372 177.533C191.239 178.036 194.255 177.181 195.583 173.21C196.336 170.96 195.331 168.2 195.454 165.788C200.292 166.906 207.077 166.617 211.759 165.417C217.224 164.017 222.364 161.674 225.054 156.604C225.191 156.345 225.493 155.704 225.475 155.482C225.698 154.855 227.499 152.392 227.579 151.696C231.427 151.193 233.215 151.143 236.206 148.541C238.644 146.419 241.16 141.63 240.835 138.445C243.898 137.174 243.529 136.873 244.132 133.538C244.598 130.956 244.045 130.035 242.028 128.98Z" fill="#CF3F3F"/>
<path d="M242.028 128.98C246.727 124.634 246.192 116.288 241.186 113.417C242.57 109.35 240.261 104.35 236.276 102.128C234.394 101.079 236.503 100.519 236.844 98.5037C237.151 96.6824 237.27 94.753 237.017 92.9132C236.59 89.7983 235.186 86.9885 232.773 84.9447C231.601 83.9516 230.2 83.1731 228.74 82.6961C227.627 82.3317 225.664 82.486 225.011 81.5665C224.269 80.522 224.185 78.2237 223.705 76.9957C223.083 75.3997 222.271 73.8507 221.284 72.4489C217.856 67.5757 210.71 65.7465 204.906 67.0473C203.768 64.8687 203.734 61.7583 201.543 60.5435C198.52 58.8686 194.073 58.7879 190.629 58.7675C188.386 57.997 186.098 58.9697 183.771 59.2552C182.349 59.1009 181.243 58.4395 179.918 57.5776C177.933 56.2866 176 55.0391 173.584 55.2306C172.337 54.6259 171.014 54.1693 169.5 54.0549C165.217 53.7304 161.274 55.5436 157.629 57.5652C154.701 59.1887 152.364 59.4201 149.073 58.8677C147.104 58.5361 145.164 58.2896 143.163 58.3446C139.51 58.4448 135.723 59.4716 132.991 62.003C132.338 62.6086 131.873 63.3357 131.276 63.9794C129.895 65.4708 128.984 65.6286 127.071 65.4504C125.193 65.2748 123.428 65.1578 121.557 65.5293C118.352 66.1668 115.28 67.7619 112.931 70.022C110.582 70.7908 109.087 72.8452 108.306 75.335C107.674 77.3504 107.557 79.4899 106.92 81.5018C106.192 83.7982 104.597 85.4545 103.062 87.2376C98.4094 92.6401 97.0235 100.079 100.342 106.582C101.058 107.985 102.956 109.655 103.161 111.196C103.286 112.131 102.884 113.391 102.884 114.371C102.884 115.308 102.944 116.236 103.096 117.162C103.655 120.577 105.17 123.859 107.493 126.433C112.215 131.665 117.712 134.162 127.786 130.105C128.538 138.52 133.441 142.24 139.236 145.358C146.572 149.307 154.496 147.936 162.446 148.629C167.554 149.074 171.779 151.19 174.702 154.643C174.862 154.907 175.017 155.174 175.161 155.446C176.114 157.24 176.816 159.266 178.074 160.876C178.269 161.498 178.448 162.133 178.59 162.795C178.946 164.459 179.124 166.185 179.071 167.887C179.017 169.624 178.41 171.519 178.893 173.23C179.828 176.537 184.485 177.156 187.372 177.533C191.239 178.036 194.255 177.181 195.583 173.21C196.336 170.96 195.331 168.2 195.454 165.788C200.292 166.906 207.077 166.617 211.759 165.417C217.224 164.017 222.364 161.674 225.054 156.604C225.191 156.345 225.493 155.704 225.475 155.482C225.698 154.855 227.499 152.392 227.579 151.696C231.427 151.193 233.215 151.143 236.206 148.541C238.644 146.419 241.16 141.63 240.835 138.445C243.898 137.174 243.529 136.873 244.132 133.538C244.598 130.956 244.045 130.035 242.028 128.98Z" fill="#CF3F3F"/>
<path d="M243.275 130.743C242.924 129.746 242.271 128.936 241.505 128.226C240.952 127.713 240.256 127.32 239.738 126.774C238.817 125.804 238.687 124.821 238.184 123.669C237.222 121.466 235.562 120.644 233.395 119.911C232.097 119.472 231.338 119.206 230.483 118.08C229.719 117.074 229.297 116.052 227.975 115.708C225.238 114.996 223.733 118.812 221.096 116.524C218.604 114.364 218.197 109.176 217.413 106.136C216.047 100.835 215.413 92.1764 209.256 90.0962C207.177 89.394 205.242 89.957 203.455 91.0742C202.261 91.8199 200.977 93.1614 199.418 92.6764C198.032 92.2455 197.083 90.5316 196.111 89.5465C194.578 87.9913 192.385 86.6577 190.119 87.2279C187.517 87.8831 187.193 90.4899 186.194 92.5638C184.625 95.8188 181.208 98.9097 177.429 97.4006C174.983 96.4244 172.393 94.8949 170.043 97.0326C168.138 98.7661 168.013 103.852 164.316 101.978C161.963 100.784 161.963 97.4113 159.249 96.4714C156.919 95.6645 154.621 97.1949 153.48 99.166C151.908 101.882 152.437 105.632 148.927 106.838C141.925 109.242 141.826 99.2103 137.888 96.0281C137.108 95.3985 136.093 95.6565 135.455 96.3269C134.444 97.3909 133.906 98.6136 133.548 100.02C133.151 101.579 133.169 103.715 132.104 104.991C129.718 107.846 123.512 104.183 120.952 103.054C113.316 99.6865 105.682 94.1625 105.59 84.9722C105.579 83.9153 103.995 84.0128 103.817 84.9615C103.766 85.2311 103.728 85.498 103.693 85.7631C103.481 85.8367 103.275 85.9626 103.094 86.1665C99.4304 90.2984 97.8282 96.0059 98.9155 101.446C99.5226 104.483 101.323 106.874 102.299 109.749C103.366 112.891 102.84 116.362 103.782 119.574C106.722 129.593 118.411 135.91 127.505 129.974C129.785 134.697 132.381 139.435 136.682 142.591C141.673 146.253 148.316 147.726 154.391 148.178C157.662 148.422 160.987 147.796 164.23 148.196C167.703 148.624 170.654 150.718 172.785 153.412C176.292 157.848 176.873 163.106 178.431 168.335C179.661 172.463 182.35 176.867 187.214 176.831C191.578 176.8 195.649 173.087 195.632 168.64C195.628 167.611 195.149 166.56 195.206 165.555C195.301 163.865 195.915 164.092 197.388 164.319C197.941 164.404 198.692 164.782 199.191 164.957C202.228 166.016 205.357 167.049 208.619 166.861C213.809 166.562 219.436 163.012 222.599 159.268C224.367 157.175 226.527 151.977 226.948 151.836C228.679 151.26 231.255 150.995 233.739 149.749C235.653 148.788 237.395 147.565 238.498 145.686C239.275 144.363 239.523 142.908 240.01 141.476C240.548 139.891 241.419 138.494 242.181 137.013C243.168 135.098 244.033 132.894 243.275 130.743Z" fill="#A33434"/>
<path d="M196.769 62.4605C196.114 62.3425 195.437 62.9907 195.559 63.6557C195.802 64.9839 196.534 66.165 196.799 67.4879C197.072 68.8578 196.809 70.2605 197.056 71.6224C197.214 72.4949 198.135 72.8886 198.876 72.4018C202.262 70.1789 200.7 63.1636 196.769 62.4605Z" fill="white"/>
<path d="M195.519 74.5076C195.258 74.8242 194.934 75.0742 194.609 75.3216C194.284 75.5681 193.965 75.8456 193.597 76.0256C192.843 76.3927 193.055 77.6784 193.981 77.525C194.672 77.4097 195.332 77.1721 195.828 76.6614C196.29 76.1861 196.528 75.6337 196.683 74.998C196.847 74.333 195.9 74.0457 195.519 74.5076Z" fill="white"/>
<path d="M115.967 72.3903C114.878 72.3726 114.135 72.3655 113.342 73.23C112.61 74.0289 112.412 75.0193 112.528 76.0753C112.602 76.7447 113.609 77.1074 114.008 76.4849C114.377 75.9077 114.85 75.3943 115.246 74.8348C115.464 74.5272 115.711 74.2408 115.843 73.8799C115.959 73.5625 115.997 73.2583 116.206 72.9764C116.354 72.776 116.259 72.3947 115.967 72.3903Z" fill="white"/>
<path d="M232.039 102.627C231.648 101.387 230.637 99.8398 229.194 99.7848C228.443 99.7556 227.595 100.325 227.767 101.193C227.944 102.08 228.57 102.741 228.838 103.596C229.071 104.34 229.287 105.238 229.358 106.015C229.445 106.994 230.677 107.203 231.262 106.544C232.288 105.39 232.501 104.094 232.039 102.627Z" fill="white"/>
<path d="M231.031 109.52C230.881 108.778 230.066 108.35 229.41 108.825C229.198 108.979 229.033 109.181 228.889 109.398C228.825 109.505 228.762 109.614 228.7 109.724C228.684 109.751 228.68 109.758 228.676 109.766C228.625 109.847 228.571 109.925 228.519 110.005C228.295 110.361 228.191 110.713 227.834 111.03C227.516 111.313 227.378 111.742 227.603 112.131C227.804 112.478 228.269 112.698 228.661 112.513C229.235 112.243 229.862 111.946 230.294 111.472C230.744 110.978 231.169 110.207 231.031 109.52Z" fill="white"/>
<path d="M226.07 152.608C224.259 156.796 221.24 160.41 217.401 162.887C213.295 165.538 208.412 166.724 203.543 166.377C200.651 166.172 197.8 165.406 195.198 164.131C194.275 163.678 193.486 164.98 194.384 165.522C194.325 165.485 194.247 165.414 194.221 165.351L194.263 165.42C194.265 165.418 194.247 165.354 194.29 165.506C194.342 165.694 194.381 165.905 194.404 166.078C194.483 166.697 194.49 167.329 194.492 167.951C194.496 169.29 194.43 170.632 194.303 171.966C194.075 174.364 192.71 177.861 189.564 177.494C187.164 177.215 184.271 176.865 181.875 176.005C180.761 175.604 180.349 174.386 180.14 173.251C179.841 171.632 179.926 169.961 179.851 168.324C179.771 166.565 179.349 164.865 178.837 163.184C178.238 161.219 177.466 159.296 176.508 157.477C174.684 154.014 172.016 150.647 168.509 148.77C166.93 147.925 165.197 147.54 163.41 147.545C161.391 147.551 159.382 147.885 157.357 147.904C153.003 147.943 148.625 147.406 144.42 146.268C140.556 145.222 136.687 143.669 133.756 140.859C131.413 138.612 129.912 135.722 129.214 132.568C129.045 131.803 128.922 131.032 128.838 130.254C128.729 129.234 127.117 129.223 127.227 130.254C127.589 133.64 128.603 136.962 130.64 139.73C133.044 142.998 136.47 145.159 140.218 146.598C144.481 148.234 149.055 149.089 153.601 149.4C155.8 149.551 158.013 149.563 160.211 149.396C162.185 149.246 164.137 148.937 166.079 149.499C167.98 150.048 169.631 151.312 171.028 152.677C172.568 154.181 173.825 155.939 174.863 157.82C176.735 161.213 178.16 165.167 178.265 169.067C178.341 171.83 178.059 176.214 181.198 177.463C182.55 178.002 184.036 178.241 185.463 178.49C186.801 178.724 188.145 178.927 189.493 179.096C193.024 179.538 195.321 176.164 195.791 173.02C195.979 171.759 196.046 170.471 196.085 169.197C196.125 167.902 196.189 166.506 195.884 165.234C195.78 164.801 195.595 164.371 195.198 164.131C194.927 164.594 194.656 165.058 194.384 165.522C199.279 167.921 204.881 168.631 210.224 167.541C215.103 166.543 219.59 163.943 222.966 160.295C224.837 158.272 226.368 155.949 227.461 153.421C227.868 152.48 226.481 151.659 226.07 152.608Z" fill="#211D1D"/>
<path d="M164.49 148.653C173.252 146.074 182.353 147.142 191.221 148.534C195.316 149.177 199.437 149.717 203.515 150.469C207.337 151.173 211.143 151.974 215.005 152.442C219.188 152.949 223.542 153.071 227.618 151.84C228.608 151.541 228.186 149.985 227.19 150.287C223.609 151.369 219.815 151.331 216.127 150.956C212.241 150.562 208.413 149.752 204.579 149.034C200.545 148.278 196.471 147.743 192.418 147.102C188.015 146.405 183.594 145.736 179.136 145.515C174.061 145.263 168.951 145.661 164.062 147.099C163.069 147.392 163.491 148.946 164.49 148.653Z" fill="#211D1D"/>
<path d="M174.163 146.774C174.445 149.647 176.409 152.108 179.188 152.948C179.027 152.553 178.868 152.159 178.707 151.764C176.704 155.663 178.614 160.476 182.828 161.808C183.314 161.962 183.811 162.039 184.317 162.095C184.756 162.143 185.246 162.143 185.612 162.424C186.026 162.741 186.3 163.263 186.687 163.622C187.022 163.933 187.394 164.216 187.784 164.455C189.474 165.498 191.582 165.781 193.486 165.224C194.479 164.933 194.057 163.378 193.058 163.67C191.483 164.132 189.8 163.867 188.432 162.959C187.689 162.466 187.273 161.697 186.592 161.154C185.899 160.602 185.066 160.582 184.226 160.474C180.508 159.995 178.393 155.895 180.098 152.577C180.338 152.109 180.134 151.55 179.616 151.394C177.572 150.777 175.985 148.913 175.775 146.774C175.675 145.752 174.062 145.741 174.163 146.774Z" fill="#211D1D"/>
<path d="M129.097 128.536C128.794 123.102 129.68 116.611 134.994 113.768C136.132 113.158 137.31 112.925 138.587 112.845C139.254 112.804 139.907 112.723 140.516 112.43C141.148 112.124 141.66 111.621 142.185 111.167C144.066 109.544 146.393 108.517 148.827 108.065C151.252 107.615 153.801 107.797 156.137 108.583C157.407 109.011 158.461 109.768 159.672 110.3C161.019 110.89 162.192 110.44 163.238 109.51C165.428 107.564 167.584 105.712 170.247 104.427C172.755 103.219 175.542 102.617 178.324 102.902C179.799 103.055 181.267 103.488 182.563 104.211C183.893 104.951 185.102 106.2 186.658 105.155C187.285 104.734 187.816 104.149 188.391 103.66C189.003 103.14 189.639 102.65 190.32 102.221C191.659 101.378 193.179 100.797 194.769 101.176C195.288 101.299 195.774 100.935 195.789 100.399C195.875 97.3722 198.203 94.745 201.156 94.1829C202.173 93.9887 201.742 92.4361 200.728 92.6294C197.067 93.3263 194.283 96.7001 194.177 100.399C194.518 100.14 194.858 99.8815 195.198 99.6226C192.208 98.9106 189.535 100.595 187.338 102.448C186.839 102.87 186.379 103.393 185.844 103.765C185.142 104.254 184.515 103.524 183.925 103.147C182.767 102.408 181.456 101.883 180.117 101.579C174.23 100.241 168.521 102.868 164.08 106.59C163.528 107.052 162.995 107.535 162.47 108.027C162.019 108.449 161.485 109.04 160.809 108.984C160.136 108.928 159.488 108.351 158.911 108.042C158.332 107.732 157.731 107.464 157.118 107.229C154.675 106.291 151.975 106.025 149.388 106.36C146.856 106.687 144.379 107.577 142.288 109.056C141.172 109.845 140.248 111.094 138.814 111.221C137.426 111.343 136.171 111.474 134.878 112.04C132.205 113.213 130.112 115.552 128.947 118.196C127.516 121.442 127.29 125.036 127.486 128.536C127.543 129.566 129.155 129.573 129.097 128.536Z" fill="#211D1D"/>
<path d="M136.153 124.572C141.685 129.689 150.591 130.498 156.922 126.374C156.716 126.402 156.509 126.428 156.302 126.456C161.176 127.172 166.434 127.042 171.145 125.48C174.722 124.292 178.363 121.968 179.245 118.055C178.755 118.119 178.264 118.183 177.773 118.247C181.331 123.064 188.289 122.935 193.642 122.223C199.028 121.506 204.174 119.511 208.329 115.957C211.025 113.651 213.182 110.77 214.846 107.648C215.333 106.733 213.942 105.919 213.454 106.835C210.811 111.796 206.901 115.88 201.776 118.28C197.396 120.332 192.303 121.154 187.486 120.927C184.469 120.785 181.058 119.998 179.165 117.434C178.786 116.922 177.858 116.889 177.692 117.626C177.096 120.27 174.984 122.028 172.634 123.159C169.776 124.535 166.478 125.046 163.338 125.207C161.566 125.298 159.788 125.252 158.024 125.066C157.561 125.018 157.087 124.909 156.623 124.888C156.213 124.871 155.958 125.09 155.621 125.293C155.023 125.653 154.4 125.976 153.756 126.245C151.219 127.299 148.386 127.626 145.668 127.273C142.568 126.871 139.592 125.559 137.292 123.433C136.532 122.73 135.39 123.866 136.153 124.572Z" fill="#211D1D"/>
<path d="M142.415 130.37C140.469 131.935 140.002 134.988 141.313 137.092C141.543 137.461 142.032 137.605 142.415 137.381C142.784 137.166 142.935 136.65 142.704 136.279C142.636 136.169 142.571 136.058 142.513 135.942C142.489 135.896 142.468 135.849 142.446 135.802C142.503 135.925 142.433 135.77 142.423 135.746C142.337 135.517 142.272 135.28 142.227 135.04C142.228 135.044 142.193 134.824 142.205 134.917C142.218 135.015 142.195 134.813 142.194 134.793C142.183 134.665 142.178 134.535 142.179 134.407C142.179 134.29 142.184 134.173 142.193 134.057C142.198 133.993 142.204 133.928 142.212 133.864C142.197 133.982 142.214 133.864 142.223 133.809C142.266 133.567 142.328 133.328 142.409 133.095C142.426 133.047 142.444 132.999 142.462 132.95C142.546 132.721 142.428 133.019 142.486 132.892C142.54 132.774 142.597 132.66 142.661 132.547C142.718 132.446 142.779 132.348 142.843 132.251C142.84 132.256 142.963 132.082 142.916 132.145C142.865 132.213 142.986 132.059 142.997 132.045C143.166 131.849 143.353 131.671 143.554 131.509C143.894 131.236 143.839 130.654 143.554 130.37C143.219 130.035 142.755 130.097 142.415 130.37Z" fill="#211D1D"/>
<path d="M158.286 139.439C159.225 139.746 160.086 139.346 160.982 139.091C162.085 138.778 163.119 139.268 164.125 139.705C166.19 140.604 168.203 141.112 170.467 140.786C172.669 140.469 174.466 139.415 176.14 138.002C176.951 137.317 177.773 136.572 178.773 136.172C179.644 135.824 180.587 135.777 181.511 135.871C183.463 136.07 185.31 136.859 187.228 137.237C189.331 137.65 191.205 137.46 193.116 136.462C194.174 135.909 195.181 135.326 196.385 135.158C197.568 134.993 198.781 135.157 199.935 135.424C202.003 135.902 203.968 136.858 206.072 137.159C208.136 137.454 210.25 137.315 212.291 136.92C214.274 136.537 216.301 135.874 217.955 134.688C218.79 134.088 217.986 132.691 217.142 133.297C214.324 135.317 210.334 135.946 206.939 135.651C204.952 135.477 203.099 134.603 201.19 134.08C198.972 133.475 196.565 133.163 194.373 134.04C193.324 134.462 192.387 135.128 191.33 135.526C190.446 135.857 189.521 135.918 188.588 135.827C186.664 135.64 184.84 134.873 182.956 134.484C181.056 134.091 179.117 134.09 177.383 135.065C175.532 136.106 174.215 137.863 172.208 138.668C169.915 139.587 167.497 139.418 165.256 138.453C164.155 137.98 162.97 137.35 161.741 137.348C161.208 137.346 160.683 137.492 160.18 137.655C159.707 137.809 159.21 138.048 158.714 137.887C157.726 137.564 157.303 139.119 158.286 139.439Z" fill="#211D1D"/>
<path d="M123.14 96.6505C127.377 97.4343 130.602 94.1226 132.886 91.0131C134.064 89.4091 135.189 87.7324 136.723 86.4396C138.287 85.1211 140.276 84.4694 142.291 84.2823C144.671 84.0607 147.067 84.3462 149.426 84.6547C149.861 84.7115 150.227 84.2442 150.231 83.8496C150.236 83.3682 149.855 83.1004 149.426 83.0446C145.453 82.525 141.104 82.0666 137.428 84.0288C133.83 85.9493 132.27 89.8435 129.491 92.6108C127.953 94.1421 125.837 95.5173 123.568 95.0979C122.555 94.91 122.12 96.4616 123.14 96.6505Z" fill="#211D1D"/>
<path d="M151.666 67.2955C153.677 66.384 156.106 67.4036 156.836 69.4873C157.627 71.7466 156.027 73.8755 154.828 75.6621C152.498 79.1343 149.757 82.8051 150.233 87.2322C150.462 89.3638 151.365 91.2826 153.125 92.5594C153.965 93.1694 154.77 91.7729 153.938 91.1691C152.382 90.0394 151.785 88.0701 151.792 86.2197C151.8 83.9959 152.695 81.9761 153.823 80.0999C155.963 76.5408 160.795 71.8485 157.598 67.5322C156.026 65.4078 153.217 64.8332 150.853 65.9043C149.91 66.3317 150.728 67.7202 151.666 67.2955Z" fill="#211D1D"/>
<path d="M169.273 61.9178C171.609 63.5378 173.047 66.3095 173.08 69.1424C173.092 70.178 174.703 70.1807 174.691 69.1424C174.651 65.7128 172.898 62.4764 170.086 60.5266C169.728 60.2793 169.192 60.461 168.984 60.8157C168.75 61.2165 168.915 61.6687 169.273 61.9178Z" fill="#211D1D"/>
<path d="M179.322 66.673C175.625 66.2527 172.532 69.7746 171.451 72.9648C171.173 73.7823 171.003 74.6823 171.088 75.5477C171.131 75.9804 171.428 76.3528 171.893 76.3528C172.296 76.3528 172.742 75.983 172.699 75.5477C172.679 75.3411 172.672 75.1354 172.681 74.9288C172.686 74.8197 172.694 74.7107 172.706 74.6025C172.725 74.4243 172.695 74.6459 172.725 74.481C172.802 74.0341 172.925 73.5961 173.083 73.1705C173.393 72.3317 173.913 71.4397 174.507 70.7118C175.726 69.2195 177.4 68.0651 179.322 68.2832C179.755 68.3329 180.128 67.878 180.128 67.4781C180.128 67.002 179.756 66.7218 179.322 66.673Z" fill="#211D1D"/>
<path d="M171.453 73.2556C168.612 74.2957 166.541 76.6019 165.421 79.3728C164.078 82.6978 164.343 86.4457 165.155 89.8639C165.396 90.872 166.95 90.4446 166.709 89.4356C165.988 86.4032 165.745 83.1527 166.832 80.1734C167.692 77.814 169.485 75.686 171.882 74.8082C172.848 74.4544 172.43 72.8974 171.453 73.2556Z" fill="#211D1D"/>
<path d="M119.451 80.326C119.858 78.0543 120.716 75.8651 122.222 74.0918C123.569 72.5064 125.289 71.3139 127.185 70.4751C129.26 69.5565 131.622 68.9731 133.895 69.005C135.385 69.0254 136.856 69.3056 138.254 69.8216C138.897 70.0583 139.516 70.4467 140.223 70.3997C140.886 70.3554 141.329 69.9183 141.691 69.4049C143.266 67.1784 146.076 67.1483 148.572 67.2121C149.609 67.2396 149.608 65.6285 148.572 65.6019C146.222 65.5408 143.555 65.6037 141.613 67.1102C141.155 67.4666 140.784 67.8851 140.455 68.3621C140.257 68.6494 140.221 68.7877 139.889 68.7558C139.488 68.7177 138.949 68.363 138.57 68.2265C137.152 67.7175 135.64 67.4471 134.134 67.3992C129.587 67.2565 124.523 69.2045 121.424 72.5676C119.54 74.6123 118.385 77.1739 117.897 79.8977C117.716 80.9112 119.268 81.3457 119.451 80.326Z" fill="#211D1D"/>
<path d="M180.356 67.1784C180.79 64.6594 182.495 62.7628 184.767 61.6846C186.558 60.8352 189.008 60.3821 190.876 61.1996C191.816 61.611 192.637 60.2234 191.688 59.8085C189.259 58.7453 186.426 59.1585 184.074 60.2376C181.413 61.4594 179.307 63.8206 178.802 66.7502C178.627 67.7636 180.18 68.1999 180.356 67.1784Z" fill="#211D1D"/>
<path d="M167.38 92.1338C169.308 92.1657 171.213 93.1552 172.28 94.7761C173.426 96.5184 173.57 98.8308 172.645 100.701C172.187 101.627 173.576 102.444 174.036 101.514C175.209 99.1429 175.144 96.2001 173.671 93.963C172.287 91.8607 169.893 90.5644 167.38 90.5227C166.343 90.5059 166.343 92.1169 167.38 92.1338Z" fill="#211D1D"/>
<path d="M154.5 94.2591C157.028 95.4765 157.585 98.68 155.597 100.675C154.727 101.548 153.698 102.348 153.459 103.634C153.231 104.864 153.661 106.167 154.626 106.976C155.416 107.638 156.561 106.504 155.766 105.837C154.761 104.995 154.83 103.744 155.688 102.828C156.656 101.797 157.649 100.997 158.14 99.6155C159.07 97.0069 157.787 94.0596 155.313 92.8688C154.383 92.421 153.565 93.8096 154.5 94.2591Z" fill="#211D1D"/>
<path d="M135.592 97.6621C136.608 98.1569 137.67 98.6836 138.438 99.5366C139.313 100.508 139.082 101.713 139.248 102.913C139.58 105.311 141.107 107.475 143.244 108.611C144.159 109.097 144.974 107.707 144.057 107.22C143.018 106.667 142.17 105.859 141.581 104.838C140.956 103.754 140.816 102.654 140.765 101.427C140.711 100.162 140.277 99.0719 139.366 98.1782C138.522 97.35 137.458 96.7843 136.405 96.2709C135.476 95.8187 134.659 97.2073 135.592 97.6621Z" fill="#211D1D"/>
<path d="M119.467 95.7133C115.209 95.0252 110.636 95.3356 107.207 98.2155C104.33 100.633 103.113 104.686 104.838 108.143C105.724 109.918 107.321 110.937 109.115 111.649C110.82 112.324 112.948 112.823 113.98 114.5C114.55 115.428 114.309 116.382 114.157 117.394C114.011 118.362 114.034 119.323 114.248 120.279C114.677 122.192 115.829 123.932 117.257 125.25C118.545 126.439 120.156 127.465 121.789 128.113C123.52 128.799 125.439 128.848 127.276 128.853C128.313 128.855 128.315 127.245 127.276 127.242C125.777 127.239 124.241 127.219 122.798 126.766C121.563 126.378 120.425 125.639 119.371 124.902C117.945 123.904 116.707 122.464 116.091 120.824C115.794 120.031 115.638 119.201 115.669 118.354C115.705 117.367 116.054 116.411 115.952 115.416C115.776 113.703 114.514 112.398 113.082 111.566C111.467 110.628 109.557 110.327 107.981 109.314C105.053 107.434 105.081 103.254 107.038 100.699C109.829 97.0539 114.825 96.5858 119.038 97.2659C120.053 97.4299 120.489 95.8782 119.467 95.7133Z" fill="#211D1D"/>
<path d="M111.526 96.1637C110.784 92.6179 110.202 88.4701 112.314 85.2612C114.067 82.5986 117.556 81.2508 120.646 81.9628C121.655 82.196 122.086 80.6435 121.074 80.4094C117.364 79.5546 113.38 81.0637 111.14 84.1352C108.529 87.7155 109.123 92.531 109.972 96.5911C110.185 97.6055 111.738 97.1763 111.526 96.1637Z" fill="#211D1D"/>
<path d="M203.691 67.6768C204.939 72.5588 202.675 77.7892 198.808 80.8545C196.786 82.4567 194.297 83.0933 192.088 84.3559C189.752 85.6904 188.09 87.9877 188.378 90.7798C188.698 93.8788 191.297 96.2054 194.394 96.3073C195.432 96.3419 195.43 94.7317 194.394 94.6972C191.778 94.6103 189.755 92.367 189.976 89.7566C190.203 87.0585 192.639 85.7631 194.853 84.7975C197.089 83.8221 199.169 82.8273 200.949 81.1134C202.692 79.4331 204.03 77.3424 204.844 75.0636C205.736 72.5597 205.904 69.8278 205.245 67.2485C204.988 66.2448 203.434 66.6704 203.691 67.6768Z" fill="#211D1D"/>
<path d="M204.005 77.47C209.28 75.061 215.763 77.0427 218.732 82.016C220.132 84.363 220.641 87.0275 220.319 89.73C219.981 92.5576 219.073 95.3285 218.026 97.9645C216.982 100.596 215.725 103.152 214.307 105.602C213.787 106.5 215.179 107.313 215.699 106.415C218.607 101.392 221.175 95.7337 221.905 89.9322C222.668 83.8629 219.291 77.8283 213.488 75.6657C210.156 74.4243 206.414 74.6079 203.193 76.0789C202.251 76.5089 203.069 77.8983 204.005 77.47Z" fill="#211D1D"/>
<path d="M218.854 134.088C224.103 130.734 226.81 124.143 225.442 118.07C225.183 118.409 224.924 118.75 224.665 119.089C227.646 119.039 230.559 117.828 232.656 115.697C234.832 113.487 235.928 110.433 236.152 107.381C236.563 101.741 233.66 95.5262 227.925 93.8522C224.948 92.9832 221.698 93.462 219.254 95.4074C218.443 96.0529 219.59 97.1861 220.394 96.5468C222.209 95.1015 224.705 94.7495 226.928 95.2576C229.297 95.7984 231.28 97.2721 232.594 99.3052C235.308 103.509 235.36 109.745 232.224 113.758C230.419 116.068 227.584 117.43 224.665 117.478C224.123 117.488 223.773 117.985 223.888 118.498C225.094 123.848 222.662 129.745 218.041 132.697C217.17 133.254 217.977 134.649 218.854 134.088Z" fill="#211D1D"/>
<path d="M225.321 119.813C228.197 120.532 230.686 122.412 232.202 124.957C233.892 127.797 234.26 131.261 233.467 134.442C233.217 135.448 234.77 135.878 235.021 134.87C235.916 131.278 235.503 127.352 233.592 124.145C231.871 121.253 229.021 119.077 225.749 118.259C224.743 118.009 224.314 119.561 225.321 119.813Z" fill="#211D1D"/>
<path d="M234.17 128.701C236.367 129.684 238.742 129.994 241.118 129.606C241.548 129.536 241.787 129.003 241.681 128.616C241.556 128.159 241.121 127.984 240.69 128.054C238.781 128.365 236.749 128.1 234.983 127.31C234.586 127.132 234.117 127.195 233.881 127.599C233.679 127.943 233.771 128.522 234.17 128.701Z" fill="#211D1D"/>
<path d="M215.315 151.954C220.647 152.086 224.37 147.067 224.144 142.009C223.804 142.268 223.464 142.527 223.124 142.785C229.297 144.935 236.514 143.239 241.112 138.606C241.843 137.869 240.705 136.73 239.973 137.467C235.753 141.718 229.201 143.2 223.553 141.232C223.069 141.064 222.51 141.509 222.532 142.009C222.72 146.203 219.794 150.455 215.315 150.344C214.277 150.318 214.278 151.929 215.315 151.954Z" fill="#211D1D"/>
<path d="M151.937 134.772C153.589 137.142 156.098 138.859 158.936 139.455C159.361 139.544 159.806 139.329 159.927 138.892C160.037 138.492 159.792 137.991 159.364 137.902C156.946 137.394 154.746 135.993 153.328 133.959C153.08 133.602 152.623 133.438 152.226 133.67C151.873 133.876 151.687 134.413 151.937 134.772Z" fill="#211D1D"/>
<path d="M155.362 137.425C153.118 139.228 152.166 142.428 152.989 145.174C153.286 146.165 154.841 145.743 154.543 144.746C153.876 142.522 154.657 140.047 156.502 138.564C156.841 138.291 156.786 137.71 156.502 137.425C156.167 137.09 155.703 137.152 155.362 137.425Z" fill="#211D1D"/>
<path d="M141.903 127.83C141.507 128.865 141.349 130.008 141.448 131.112C141.467 131.329 141.525 131.522 141.684 131.681C141.824 131.82 142.053 131.926 142.254 131.917C142.658 131.899 143.099 131.56 143.059 131.112C143.036 130.848 143.026 130.582 143.032 130.317C143.035 130.204 143.041 130.09 143.049 129.977C143.055 129.901 143.062 129.826 143.07 129.751C143.077 129.693 143.123 129.529 143.07 129.739C143.13 129.502 143.153 129.254 143.214 129.015C143.28 128.759 143.362 128.506 143.457 128.258C143.608 127.864 143.29 127.358 142.894 127.267C142.434 127.163 142.065 127.408 141.903 127.83Z" fill="#211D1D"/>
<path d="M104.257 110.269C99.5597 114.581 102.117 121.837 105.494 126.094C108.715 130.155 113.712 133.187 118.995 133.211C122.35 133.226 125.441 131.93 128.059 129.891C128.876 129.254 127.728 128.122 126.919 128.752C124.862 130.355 122.386 131.433 119.764 131.58C117.427 131.711 115.094 131.166 112.998 130.138C108.844 128.101 105.39 124.373 103.918 119.962C102.95 117.061 102.998 113.61 105.396 111.407C106.161 110.705 105.02 109.568 104.257 110.269Z" fill="#211D1D"/>
<path d="M104.183 110.884C101.034 107.626 99.2533 103.157 99.3561 98.6207C99.456 94.2148 101.374 89.8888 104.539 86.8271C105.32 86.0716 106.201 85.3942 106.779 84.4561C107.413 83.4276 107.477 82.2146 107.725 81.062C108.18 78.9552 109.003 76.9514 110.147 75.1248C112.516 71.3441 116.217 68.5466 120.505 67.3044C122.737 66.658 125.07 66.4275 127.385 66.6385C128.576 66.7476 129.783 67.0561 130.931 66.5631C131.923 66.1375 132.582 65.2739 133.317 64.522C136.142 61.635 140.113 59.9362 144.133 59.7127C146.17 59.5992 148.206 59.8493 150.142 60.5019C151.281 60.8858 152.35 61.2999 153.527 60.8016C154.484 60.3972 155.191 59.6001 155.973 58.944C158.909 56.4782 162.698 55.0462 166.5 54.7013C170.362 54.3501 174.342 55.0284 177.785 56.8435C178.646 57.2965 179.473 57.8152 180.25 58.4004C181.05 59.0034 181.769 59.8173 182.75 60.1259C183.766 60.446 184.743 59.9956 185.737 59.8191C186.571 59.6702 187.432 59.609 188.278 59.6639C188.891 59.703 189.799 59.8014 190.189 60.352C190.784 61.1908 192.181 60.3875 191.58 59.5389C190.526 58.0502 188.47 57.9403 186.803 58.0724C185.804 58.1522 184.886 58.4173 183.91 58.5973C182.835 58.7941 181.992 57.7168 181.214 57.1236C177.968 54.6498 173.955 53.3101 169.901 53.0467C165.876 52.7852 161.753 53.6231 158.191 55.5259C157.306 55.9985 156.458 56.5411 155.66 57.1476C154.837 57.7736 154.117 58.6008 153.241 59.1444C152.162 59.812 150.997 59.0548 149.91 58.7418C148.893 58.4492 147.847 58.263 146.794 58.1584C142.578 57.7381 138.159 58.8784 134.677 61.291C133.783 61.9099 132.938 62.6068 132.177 63.3835C131.391 64.1869 130.726 65.2074 129.495 65.2376C128.275 65.2677 127.047 64.9609 125.819 64.9521C124.627 64.9432 123.435 65.0531 122.26 65.2517C117.667 66.0276 113.381 68.4562 110.405 72.0436C108.959 73.7851 107.815 75.7348 107.003 77.8478C106.606 78.8834 106.298 79.9527 106.089 81.0416C105.847 82.3015 105.721 83.417 104.794 84.3772C104.001 85.1983 103.118 85.9138 102.367 86.7783C101.619 87.6393 100.944 88.5685 100.363 89.5492C99.1836 91.5442 98.3605 93.7706 97.9902 96.0591C97.2475 100.649 98.2874 105.447 100.866 109.323C101.508 110.287 102.239 111.19 103.043 112.024C103.765 112.77 104.903 111.631 104.183 110.884Z" fill="#211D1D"/>
<path d="M124.816 82.0922C128.176 82.2447 131.477 83.4666 134.104 85.5733C134.443 85.8455 134.912 85.9049 135.243 85.5733C135.525 85.2913 135.585 84.7079 135.243 84.4348C132.265 82.0461 128.635 80.6549 124.816 80.482C123.779 80.435 123.781 82.0452 124.816 82.0922Z" fill="#211D1D"/>
<path d="M128.37 77.0595C128.045 78.7441 128.261 80.4412 128.988 81.9938C129.167 82.3768 129.748 82.5036 130.09 82.2828C130.484 82.0292 130.571 81.5903 130.379 81.1807C130.367 81.1559 130.248 80.8801 130.307 81.0247C130.278 80.9537 130.25 80.8828 130.224 80.8119C130.162 80.6452 130.107 80.4758 130.059 80.3047C130.01 80.1336 129.968 79.9607 129.933 79.786C129.918 79.7115 129.904 79.6361 129.891 79.5608C129.883 79.5111 129.875 79.4606 129.868 79.4109C129.877 79.4863 129.879 79.4943 129.871 79.4357C129.839 79.0935 129.815 78.753 129.825 78.409C129.83 78.2308 129.845 78.0534 129.861 77.8761C129.884 77.6287 129.833 78.0339 129.871 77.7883C129.887 77.6872 129.905 77.5879 129.924 77.4877C130.004 77.0754 129.808 76.5993 129.361 76.4973C128.963 76.4069 128.456 76.617 128.37 77.0595Z" fill="#211D1D"/>
<path d="M231.902 116.391C234.175 116.152 236.476 116.873 238.154 118.44C238.91 119.147 240.053 118.01 239.293 117.301C237.326 115.464 234.589 114.498 231.902 114.781C231.47 114.826 231.096 115.119 231.096 115.586C231.096 115.986 231.467 116.437 231.902 116.391Z" fill="#211D1D"/>
<path d="M237.841 117.304C238.933 116.032 240.141 114.865 241.449 113.818C241.78 113.554 241.745 112.952 241.449 112.68C241.099 112.358 240.662 112.398 240.31 112.68C239.002 113.727 237.794 114.894 236.702 116.165C236.427 116.484 236.365 116.994 236.702 117.304C237.003 117.58 237.548 117.645 237.841 117.304Z" fill="#211D1D"/>
<path d="M157.231 58.333C160.819 57.0899 164.659 58.1725 167.761 60.1551C168.637 60.7155 169.446 59.3216 168.574 58.7639C165.137 56.5667 160.772 55.4052 156.803 56.7796C155.829 57.1174 156.247 58.6735 157.231 58.333Z" fill="#211D1D"/>
<path d="M194.043 90.0474C193.757 92.437 194.188 94.8497 195.198 97.0264C195.382 97.421 195.951 97.5203 196.301 97.3155C196.706 97.0787 196.774 96.6097 196.59 96.2142C195.698 94.2911 195.403 92.1453 195.653 90.0474C195.706 89.6148 195.246 89.2424 194.848 89.2424C194.37 89.2424 194.094 89.6139 194.043 90.0474Z" fill="#211D1D"/>
<path d="M191.488 61.0045C196.201 58.0688 202.861 61.7954 203.628 67.0649C203.777 68.0873 205.331 67.6528 205.182 66.6375C204.265 60.3369 196.196 56.1748 190.674 59.6142C189.796 60.1613 190.604 61.5552 191.488 61.0045Z" fill="#211D1D"/>
<path d="M204.615 67.8745C208.177 66.8699 212.079 67.2653 215.367 68.9748C218.64 70.6755 221.119 73.6334 222.298 77.1224C222.963 79.0873 223.205 81.14 223.02 83.205C222.969 83.7822 223.574 84.0509 224.041 83.9817C228.149 83.3699 232.362 85.6957 234.534 89.1342C237.03 93.0869 236.955 98.1356 235.255 102.372C235.133 102.676 235.332 103.141 235.626 103.282C239.252 105.023 241.245 109.364 240.127 113.243C239.994 113.704 240.377 114.318 240.904 114.262C244.216 113.913 244.513 118.697 244.652 120.943C244.811 123.552 244.335 127.033 241.483 128.063C240.813 128.304 240.703 129.13 241.291 129.534C242.767 130.549 243.598 132.479 243.219 134.247C242.845 135.99 241.453 137.356 239.741 137.788C239.28 137.905 238.947 138.552 239.26 138.97C241.463 141.926 238.387 145.259 236.216 147.123C233.711 149.273 230.351 151.064 226.969 150.228C225.962 149.98 225.533 151.533 226.54 151.782C230.599 152.783 234.537 150.732 237.524 148.116C238.984 146.837 240.385 145.361 241.126 143.538C241.829 141.809 241.797 139.694 240.651 138.158C240.49 138.552 240.33 138.946 240.169 139.341C242.457 138.763 244.383 136.837 244.81 134.489C245.257 132.028 244.148 129.549 242.104 128.143C242.039 128.634 241.975 129.125 241.911 129.615C245.598 128.285 246.502 124.191 246.246 120.688C246.108 118.82 245.957 116.762 245.04 115.089C244.233 113.616 242.637 112.47 240.904 112.652C241.163 112.992 241.422 113.331 241.681 113.671C242.985 109.147 240.698 103.936 236.438 101.891C236.562 102.194 236.686 102.497 236.809 102.8C238.305 99.0729 238.589 94.7353 237.189 90.9306C235.881 87.375 233.169 84.535 229.644 83.1199C227.72 82.3467 225.659 82.1242 223.612 82.4283C223.952 82.6872 224.292 82.9461 224.631 83.205C224.992 79.1848 223.753 75.0849 221.296 71.8911C218.801 68.6485 215.079 66.5072 211.034 65.9078C208.741 65.5691 206.419 65.6915 204.186 66.321C203.189 66.6021 203.613 68.1564 204.615 67.8745Z" fill="#211D1D"/>
</svg>
