<svg width="701" height="192" viewBox="0 0 701 192" fill="none" xmlns="http://www.w3.org/2000/svg">
<path d="M68.48 162.4C57.4933 162.4 47.6267 159.947 38.88 155.04C30.24 150.027 23.4667 143.093 18.56 134.24C13.6533 125.387 11.2 115.307 11.2 104C11.2 92.6933 13.6533 82.6133 18.56 73.76C23.4667 64.9067 30.24 58.0267 38.88 53.12C47.6267 48.1067 57.4933 45.6 68.48 45.6C77.9733 45.6 86.5067 47.4667 94.08 51.2C101.653 54.8267 107.84 60 112.64 66.72C117.547 73.44 120.693 81.3333 122.08 90.4H118.88C117.493 81.9733 114.507 74.6667 109.92 68.48C105.44 62.1867 99.6267 57.3333 92.48 53.92C85.44 50.5067 77.44 48.8 68.48 48.8C58.0267 48.8 48.6933 51.1467 40.48 55.84C32.2667 60.4267 25.8667 66.9333 21.28 75.36C16.6933 83.68 14.4 93.2267 14.4 104C14.4 114.667 16.6933 124.213 21.28 132.64C25.8667 140.96 32.2667 147.467 40.48 152.16C48.6933 156.853 58.0267 159.2 68.48 159.2C77.44 159.2 85.44 157.493 92.48 154.08C99.6267 150.667 105.44 145.867 109.92 139.68C114.507 133.387 117.493 126.027 118.88 117.6H122.08C120.693 126.667 117.547 134.56 112.64 141.28C107.84 148 101.653 153.227 94.08 156.96C86.5067 160.587 77.9733 162.4 68.48 162.4ZM314.9 160V48H343.22C355.807 48 365.673 50.88 372.82 56.64C380.073 62.2933 383.7 70.08 383.7 80C383.7 88.64 380.927 95.7333 375.38 101.28C369.833 106.72 362.153 110.08 352.34 111.36L394.74 160H390.42L348.34 111.84C347.487 111.947 346.633 112 345.78 112C344.927 112 344.073 112 343.22 112H318.1V160H314.9ZM343.22 108.8C354.953 108.8 364.073 106.24 370.58 101.12C377.193 96 380.5 88.96 380.5 80C380.5 71.04 377.193 64 370.58 58.88C364.073 53.76 354.953 51.2 343.22 51.2H318.1V108.8H343.22ZM447.569 160V51.2H401.169V48H497.169V51.2H450.769V160H447.569ZM522.713 160V48H581.913V51.2H525.913V102.4H568.153V105.6H525.913V156.8H589.913V160H522.713ZM598.688 160L645.408 103.04L600.288 48H604.448L647.488 100.48L690.528 48H694.688L649.568 103.04L696.288 160H692.128L647.488 105.6L602.848 160H598.688Z" fill="#A33434"/>
<path d="M219.856 35C198.051 35.0001 184.406 45.5375 173.147 58.2305C164.045 66.8522 149.186 107.087 142 121.936H157.091V158.578H219.856C253.723 158.578 281.178 131.129 281.178 97.2686C281.178 63.4079 253.723 35 219.856 35ZM218.908 47.4541C246.419 47.4542 268.722 70.5759 268.722 98.1367C268.722 125.698 246.42 148.041 218.908 148.041H168.878C168.878 138.056 169.357 125.98 169.357 113.904H158.536C164.374 101.818 171.795 76.4496 181.052 66.374C190.308 56.2986 201.195 47.4541 218.908 47.4541Z" fill="#A33434"/>
<path d="M252.795 94.0338C254.947 92.0444 254.702 88.2244 252.41 86.9103C253.044 85.0492 251.987 82.7607 250.162 81.7437C249.301 81.2636 250.266 81.0071 250.422 80.0847C250.563 79.2511 250.617 78.368 250.502 77.526C250.306 76.1003 249.663 74.8142 248.559 73.8788C248.022 73.4243 247.381 73.068 246.713 72.8496C246.203 72.6828 245.304 72.7534 245.005 72.3326C244.665 71.8545 244.627 70.8026 244.408 70.2406C244.123 69.5101 243.751 68.8011 243.299 68.1595C241.73 65.9291 238.459 65.0918 235.802 65.6872C235.281 64.6901 235.265 63.2664 234.262 62.7104C232.878 61.9438 230.843 61.9069 229.266 61.8976C228.239 61.5449 227.192 61.9901 226.127 62.1208C225.476 62.0502 224.969 61.7474 224.363 61.353C223.454 60.7621 222.569 60.1911 221.463 60.2787C220.892 60.002 220.287 59.793 219.594 59.7406C217.633 59.5921 215.828 60.422 214.159 61.3473C212.819 62.0903 211.749 62.1963 210.242 61.9434C209.341 61.7917 208.453 61.6788 207.537 61.704C205.865 61.7499 204.131 62.2198 202.881 63.3784C202.582 63.6556 202.369 63.9884 202.095 64.283C201.463 64.9656 201.046 65.0379 200.17 64.9563C199.311 64.8759 198.503 64.8224 197.646 64.9924C196.179 65.2842 194.773 66.0143 193.698 67.0487C192.622 67.4006 191.938 68.3409 191.58 69.4804C191.291 70.4029 191.238 71.3821 190.946 72.303C190.613 73.3541 189.883 74.1121 189.18 74.9283C187.05 77.401 186.415 80.8058 187.935 83.7822C188.263 84.4242 189.131 85.1888 189.225 85.8941C189.282 86.3218 189.098 86.8985 189.098 87.347C189.098 87.7759 189.126 88.2008 189.195 88.6245C189.451 90.1877 190.145 91.6897 191.208 92.8678C193.37 95.2626 195.886 96.4054 200.498 94.5484C200.842 98.4001 203.087 100.102 205.739 101.53C209.098 103.337 212.725 102.71 216.365 103.027C218.703 103.231 220.637 104.199 221.975 105.78C222.048 105.901 222.119 106.023 222.185 106.147C222.621 106.968 222.943 107.896 223.518 108.632C223.608 108.917 223.69 109.208 223.755 109.511C223.918 110.272 223.999 111.062 223.975 111.841C223.95 112.636 223.672 113.504 223.894 114.287C224.322 115.8 226.454 116.084 227.775 116.256C229.545 116.487 230.926 116.095 231.534 114.278C231.878 113.248 231.418 111.985 231.475 110.88C233.69 111.392 236.796 111.26 238.939 110.711C241.441 110.07 243.794 108.997 245.025 106.677C245.088 106.558 245.226 106.265 245.218 106.164C245.32 105.877 246.144 104.749 246.181 104.431C247.943 104.201 248.761 104.178 250.13 102.987C251.246 102.016 252.398 99.8233 252.249 98.366C253.651 97.784 253.483 97.6464 253.758 96.1197C253.972 94.9379 253.719 94.5167 252.795 94.0338Z" fill="#CF3F3F"/>
<path d="M252.795 94.0338C254.947 92.0444 254.702 88.2244 252.41 86.9103C253.044 85.0492 251.987 82.7607 250.162 81.7437C249.301 81.2636 250.266 81.0071 250.422 80.0847C250.563 79.2511 250.617 78.368 250.502 77.526C250.306 76.1003 249.663 74.8142 248.559 73.8788C248.022 73.4243 247.381 73.068 246.713 72.8496C246.203 72.6828 245.304 72.7534 245.005 72.3326C244.665 71.8545 244.627 70.8026 244.408 70.2406C244.123 69.5101 243.751 68.8011 243.299 68.1595C241.73 65.9291 238.459 65.0918 235.802 65.6872C235.281 64.6901 235.265 63.2664 234.262 62.7104C232.878 61.9438 230.843 61.9069 229.266 61.8976C228.239 61.5449 227.192 61.9901 226.127 62.1208C225.476 62.0502 224.969 61.7474 224.363 61.353C223.454 60.7621 222.569 60.1911 221.463 60.2787C220.892 60.002 220.287 59.793 219.594 59.7406C217.633 59.5921 215.828 60.422 214.159 61.3473C212.819 62.0903 211.749 62.1963 210.242 61.9434C209.341 61.7917 208.453 61.6788 207.537 61.704C205.865 61.7499 204.131 62.2198 202.881 63.3784C202.582 63.6556 202.369 63.9884 202.095 64.283C201.463 64.9656 201.046 65.0379 200.17 64.9563C199.311 64.8759 198.503 64.8224 197.646 64.9924C196.179 65.2842 194.773 66.0143 193.698 67.0487C192.622 67.4006 191.938 68.3409 191.58 69.4804C191.291 70.4029 191.238 71.3821 190.946 72.303C190.613 73.3541 189.883 74.1121 189.18 74.9283C187.05 77.401 186.415 80.8058 187.935 83.7822C188.263 84.4242 189.131 85.1888 189.225 85.8941C189.282 86.3218 189.098 86.8985 189.098 87.347C189.098 87.7759 189.126 88.2008 189.195 88.6245C189.451 90.1877 190.145 91.6897 191.208 92.8678C193.37 95.2626 195.886 96.4054 200.498 94.5484C200.842 98.4001 203.087 100.102 205.739 101.53C209.098 103.337 212.725 102.71 216.365 103.027C218.703 103.231 220.637 104.199 221.975 105.78C222.048 105.901 222.119 106.023 222.185 106.147C222.621 106.968 222.943 107.896 223.518 108.632C223.608 108.917 223.69 109.208 223.755 109.511C223.918 110.272 223.999 111.062 223.975 111.841C223.95 112.636 223.672 113.504 223.894 114.287C224.322 115.8 226.454 116.084 227.775 116.256C229.545 116.487 230.926 116.095 231.534 114.278C231.878 113.248 231.418 111.985 231.475 110.88C233.69 111.392 236.796 111.26 238.939 110.711C241.441 110.07 243.794 108.997 245.025 106.677C245.088 106.558 245.226 106.265 245.218 106.164C245.32 105.877 246.144 104.749 246.181 104.431C247.943 104.201 248.761 104.178 250.13 102.987C251.246 102.016 252.398 99.8233 252.249 98.366C253.651 97.784 253.483 97.6464 253.758 96.1197C253.972 94.9379 253.719 94.5167 252.795 94.0338Z" fill="#CF3F3F"/>
<path d="M253.366 94.8405C253.206 94.3844 252.907 94.0135 252.556 93.6884C252.303 93.4538 251.984 93.274 251.747 93.0241C251.326 92.5801 251.266 92.13 251.036 91.6029C250.596 90.5944 249.835 90.2182 248.843 89.8825C248.249 89.6817 247.902 89.5603 247.51 89.0445C247.161 88.5843 246.968 88.1164 246.362 87.9589C245.109 87.6331 244.42 89.3797 243.213 88.3327C242.072 87.3437 241.886 84.9696 241.527 83.578C240.902 81.1516 240.612 77.1887 237.793 76.2366C236.842 75.9152 235.956 76.1729 235.138 76.6843C234.591 77.0256 234.003 77.6396 233.29 77.4176C232.655 77.2204 232.221 76.4359 231.776 75.985C231.074 75.2732 230.07 74.6628 229.033 74.9238C227.841 75.2237 227.693 76.4168 227.236 77.366C226.518 78.8558 224.953 80.2705 223.223 79.5798C222.104 79.133 220.918 78.433 219.842 79.4114C218.97 80.2048 218.913 82.5326 217.221 81.6747C216.143 81.1285 216.143 79.5847 214.901 79.1545C213.834 78.7852 212.783 79.4857 212.26 80.3878C211.54 81.6309 211.783 83.3475 210.176 83.8994C206.97 84.9996 206.925 80.4081 205.123 78.9516C204.766 78.6635 204.301 78.7816 204.009 79.0884C203.546 79.5754 203.3 80.135 203.136 80.7786C202.954 81.4921 202.962 82.4697 202.475 83.0537C201.383 84.3609 198.542 82.684 197.37 82.1674C193.874 80.6261 190.379 78.0978 190.337 73.8914C190.332 73.4076 189.607 73.4523 189.525 73.8865C189.502 74.0099 189.485 74.132 189.469 74.2534C189.372 74.287 189.277 74.3447 189.194 74.438C187.517 76.3292 186.784 78.9415 187.282 81.4316C187.56 82.8216 188.384 83.9157 188.831 85.2318C189.319 86.6696 189.078 88.2584 189.51 89.7287C190.856 94.3142 196.206 97.2053 200.369 94.4887C201.413 96.6501 202.602 98.8189 204.57 100.263C206.855 101.939 209.896 102.614 212.677 102.821C214.175 102.932 215.697 102.646 217.181 102.829C218.771 103.025 220.122 103.983 221.098 105.216C222.703 107.246 222.969 109.653 223.682 112.046C224.245 113.936 225.476 115.951 227.703 115.935C229.701 115.921 231.564 114.221 231.557 112.186C231.555 111.715 231.335 111.234 231.361 110.774C231.405 110 231.686 110.104 232.36 110.208C232.614 110.247 232.957 110.42 233.186 110.5C234.576 110.985 236.008 111.458 237.502 111.371C239.878 111.235 242.453 109.61 243.901 107.896C244.711 106.938 245.7 104.559 245.892 104.495C246.685 104.231 247.864 104.11 249.001 103.539C249.877 103.1 250.674 102.54 251.18 101.68C251.535 101.074 251.649 100.408 251.872 99.7531C252.118 99.0274 252.517 98.3883 252.866 97.7105C253.317 96.834 253.714 95.8251 253.366 94.8405Z" fill="#A33434"/>
<path d="M232.077 63.5878C231.777 63.5338 231.467 63.8305 231.523 64.1349C231.634 64.7428 231.969 65.2834 232.09 65.8888C232.216 66.5158 232.095 67.1579 232.208 67.7812C232.281 68.1805 232.702 68.3607 233.042 68.1379C234.592 67.1205 233.876 63.9096 232.077 63.5878Z" fill="white"/>
<path d="M231.504 69.1018C231.385 69.2467 231.237 69.3611 231.088 69.4743C230.939 69.5871 230.793 69.7142 230.625 69.7965C230.28 69.9646 230.377 70.553 230.801 70.4828C231.117 70.43 231.419 70.3213 231.646 70.0875C231.857 69.87 231.967 69.6172 232.038 69.3262C232.112 69.0218 231.679 68.8903 231.504 69.1018Z" fill="white"/>
<path d="M195.088 68.1327C194.589 68.1246 194.249 68.1213 193.886 68.517C193.551 68.8826 193.46 69.3359 193.513 69.8193C193.547 70.1257 194.008 70.2917 194.191 70.0068C194.36 69.7426 194.576 69.5076 194.758 69.2515C194.857 69.1107 194.97 68.9796 195.031 68.8145C195.084 68.6692 195.101 68.53 195.197 68.4009C195.265 68.3092 195.221 68.1347 195.088 68.1327Z" fill="white"/>
<path d="M248.223 81.9717C248.044 81.4044 247.581 80.6962 246.921 80.6711C246.577 80.6577 246.188 80.9182 246.267 81.3155C246.348 81.7218 246.635 82.0241 246.757 82.4153C246.864 82.7558 246.963 83.1669 246.995 83.5228C247.035 83.9708 247.599 84.0662 247.867 83.7647C248.337 83.2367 248.434 82.6434 248.223 81.9717Z" fill="white"/>
<path d="M247.761 85.1266C247.692 84.7874 247.319 84.5913 247.019 84.8089C246.922 84.8791 246.847 84.9716 246.781 85.071C246.751 85.1201 246.722 85.1701 246.694 85.22C246.687 85.2326 246.685 85.2358 246.683 85.2395C246.66 85.2764 246.635 85.3121 246.611 85.3486C246.509 85.5118 246.461 85.6729 246.298 85.8182C246.152 85.9476 246.089 86.144 246.192 86.3218C246.284 86.4809 246.497 86.5815 246.676 86.4967C246.939 86.3729 247.226 86.237 247.424 86.0203C247.63 85.7942 247.824 85.4411 247.761 85.1266Z" fill="white"/>
<path d="M245.49 104.848C244.661 106.765 243.279 108.419 241.522 109.553C239.642 110.766 237.407 111.309 235.178 111.15C233.854 111.056 232.549 110.706 231.357 110.122C230.935 109.915 230.574 110.511 230.985 110.759C230.958 110.742 230.923 110.709 230.91 110.68L230.929 110.712C230.931 110.711 230.923 110.682 230.942 110.751C230.966 110.837 230.984 110.934 230.994 111.013C231.031 111.296 231.033 111.586 231.035 111.871C231.036 112.483 231.006 113.098 230.948 113.708C230.844 114.806 230.219 116.406 228.778 116.239C227.68 116.111 226.355 115.95 225.259 115.557C224.749 115.373 224.56 114.816 224.464 114.296C224.327 113.555 224.366 112.791 224.332 112.041C224.295 111.236 224.102 110.458 223.868 109.689C223.594 108.789 223.24 107.909 222.802 107.077C221.967 105.492 220.745 103.951 219.14 103.091C218.417 102.705 217.624 102.528 216.806 102.531C215.881 102.533 214.962 102.686 214.035 102.695C212.042 102.713 210.037 102.467 208.113 101.946C206.344 101.468 204.572 100.757 203.231 99.4706C202.158 98.4422 201.471 97.1196 201.152 95.6757C201.074 95.3259 201.018 94.9728 200.98 94.6169C200.93 94.1498 200.192 94.1449 200.242 94.6169C200.408 96.1664 200.872 97.687 201.804 98.954C202.905 100.449 204.473 101.439 206.189 102.098C208.141 102.846 210.234 103.237 212.316 103.38C213.322 103.449 214.335 103.454 215.341 103.378C216.245 103.309 217.139 103.168 218.027 103.425C218.898 103.676 219.654 104.255 220.293 104.879C220.998 105.568 221.574 106.372 222.049 107.234C222.906 108.787 223.558 110.596 223.606 112.381C223.641 113.646 223.512 115.653 224.949 116.224C225.568 116.471 226.248 116.58 226.901 116.694C227.513 116.801 228.129 116.894 228.746 116.971C230.363 117.174 231.414 115.629 231.629 114.191C231.715 113.613 231.746 113.024 231.764 112.441C231.782 111.848 231.811 111.209 231.672 110.627C231.624 110.429 231.539 110.232 231.357 110.122C231.234 110.334 231.109 110.546 230.985 110.759C233.226 111.857 235.79 112.182 238.236 111.683C240.47 111.226 242.524 110.036 244.069 108.366C244.926 107.441 245.627 106.377 246.127 105.22C246.313 104.789 245.678 104.414 245.49 104.848Z" fill="#211D1D"/>
<path d="M217.3 103.038C221.312 101.858 225.477 102.346 229.537 102.983C231.412 103.278 233.298 103.525 235.165 103.869C236.915 104.191 238.657 104.558 240.425 104.772C242.34 105.004 244.333 105.06 246.199 104.496C246.652 104.36 246.459 103.648 246.003 103.786C244.364 104.281 242.627 104.264 240.939 104.092C239.16 103.912 237.407 103.541 235.652 103.212C233.805 102.866 231.941 102.621 230.085 102.328C228.069 102.009 226.046 101.703 224.005 101.602C221.681 101.486 219.342 101.669 217.104 102.327C216.65 102.461 216.843 103.172 217.3 103.038Z" fill="#211D1D"/>
<path d="M221.729 102.178C221.857 103.493 222.756 104.619 224.029 105.004C223.955 104.823 223.882 104.642 223.808 104.462C222.892 106.246 223.766 108.449 225.695 109.059C225.918 109.129 226.145 109.165 226.377 109.19C226.578 109.212 226.802 109.212 226.969 109.341C227.159 109.486 227.285 109.725 227.462 109.889C227.615 110.031 227.785 110.161 227.963 110.27C228.737 110.748 229.702 110.878 230.574 110.622C231.029 110.489 230.835 109.777 230.378 109.911C229.657 110.123 228.886 110.001 228.26 109.586C227.92 109.36 227.73 109.008 227.418 108.76C227.101 108.507 226.72 108.498 226.335 108.448C224.633 108.229 223.665 106.353 224.445 104.834C224.555 104.62 224.462 104.364 224.225 104.293C223.289 104.01 222.562 103.157 222.466 102.178C222.42 101.71 221.682 101.705 221.729 102.178Z" fill="#211D1D"/>
<path d="M201.098 93.8304C200.959 91.3431 201.365 88.3724 203.797 87.071C204.319 86.7922 204.858 86.6854 205.442 86.6489C205.748 86.6298 206.047 86.5929 206.325 86.4586C206.615 86.3186 206.849 86.0885 207.09 85.8807C207.951 85.1376 209.016 84.6677 210.13 84.4611C211.24 84.2549 212.407 84.3381 213.477 84.6981C214.058 84.8937 214.54 85.2403 215.095 85.4838C215.711 85.7541 216.248 85.5479 216.727 85.1222C217.729 84.2318 218.717 83.384 219.936 82.796C221.084 82.2428 222.36 81.9673 223.633 82.098C224.308 82.1678 224.98 82.3662 225.574 82.697C226.182 83.0358 226.736 83.6072 227.448 83.1292C227.735 82.9364 227.978 82.6686 228.242 82.4449C228.522 82.2067 228.813 81.9823 229.124 81.7863C229.738 81.4003 230.433 81.1345 231.161 81.3078C231.399 81.3642 231.621 81.1974 231.628 80.9523C231.668 79.5668 232.733 78.3644 234.085 78.1071C234.551 78.0182 234.353 77.3076 233.889 77.3961C232.213 77.715 230.939 79.2592 230.89 80.9523C231.046 80.8338 231.202 80.7153 231.357 80.5968C229.989 80.2709 228.765 81.042 227.76 81.8902C227.531 82.0829 227.321 82.3224 227.076 82.4928C226.754 82.7164 226.467 82.3824 226.197 82.21C225.667 81.8715 225.067 81.6313 224.454 81.4921C221.759 80.8797 219.145 82.0821 217.113 83.7858C216.86 83.9972 216.616 84.2184 216.376 84.4436C216.169 84.6368 215.925 84.9071 215.615 84.8815C215.307 84.856 215.01 84.5918 214.746 84.4501C214.481 84.3085 214.206 84.1859 213.925 84.0784C212.807 83.649 211.571 83.5273 210.387 83.6803C209.228 83.83 208.094 84.2375 207.137 84.9144C206.626 85.2756 206.203 85.8474 205.546 85.9054C204.911 85.9614 204.336 86.0211 203.744 86.2804C202.521 86.8169 201.563 87.8875 201.029 89.0977C200.375 90.5834 200.271 92.2286 200.361 93.8304C200.387 94.302 201.125 94.3048 201.098 93.8304Z" fill="#211D1D"/>
<path d="M204.328 92.016C206.861 94.358 210.938 94.7285 213.836 92.841C213.741 92.8536 213.647 92.8658 213.552 92.8783C215.783 93.2063 218.19 93.1466 220.347 92.4315C221.984 91.8881 223.651 90.8241 224.055 89.0331C223.83 89.0624 223.606 89.092 223.381 89.1212C225.01 91.3261 228.195 91.2668 230.646 90.9409C233.111 90.6126 235.467 89.6995 237.369 88.073C238.603 87.0174 239.59 85.6989 240.352 84.27C240.575 83.8511 239.938 83.4786 239.715 83.8978C238.505 86.1684 236.715 88.0377 234.369 89.1362C232.364 90.0753 230.033 90.4515 227.827 90.3476C226.446 90.2827 224.885 89.9227 224.018 88.7491C223.845 88.5149 223.42 88.4995 223.344 88.8371C223.071 90.0469 222.104 90.8517 221.028 91.3695C219.72 91.9993 218.21 92.2331 216.773 92.3069C215.962 92.3483 215.148 92.3272 214.34 92.2424C214.128 92.2201 213.912 92.1702 213.699 92.1608C213.511 92.1527 213.395 92.253 213.24 92.3459C212.967 92.5111 212.682 92.6588 212.386 92.7818C211.225 93.2643 209.928 93.414 208.684 93.2525C207.265 93.0683 205.902 92.4681 204.85 91.4949C204.502 91.1731 203.979 91.6929 204.328 92.016Z" fill="#211D1D"/>
<path d="M207.195 94.6697C206.304 95.3859 206.09 96.7836 206.69 97.7466C206.796 97.9155 207.02 97.9812 207.195 97.8789C207.364 97.7803 207.433 97.5441 207.327 97.3745C207.296 97.3242 207.266 97.273 207.239 97.2203C207.229 97.1992 207.219 97.1777 207.209 97.1562C207.235 97.2122 207.203 97.1416 207.199 97.1302C207.159 97.0255 207.129 96.9171 207.108 96.8072C207.109 96.8092 207.093 96.7085 207.099 96.7511C207.104 96.7958 207.094 96.7033 207.093 96.6943C207.089 96.6355 207.086 96.5762 207.087 96.5174C207.087 96.4638 207.089 96.4107 207.093 96.3575C207.095 96.3279 207.098 96.2982 207.102 96.269C207.095 96.323 207.103 96.269 207.107 96.2439C207.127 96.1331 207.155 96.0235 207.192 95.9172C207.2 95.8949 207.208 95.8729 207.216 95.8506C207.255 95.7459 207.201 95.8823 207.227 95.8242C207.252 95.7703 207.278 95.7179 207.307 95.6664C207.333 95.6201 207.361 95.5751 207.391 95.5308C207.389 95.5329 207.446 95.4533 207.424 95.4821C207.401 95.5134 207.456 95.4428 207.461 95.4367C207.538 95.3466 207.624 95.2654 207.716 95.1912C207.872 95.0662 207.846 94.7999 207.716 94.6697C207.563 94.5163 207.351 94.5447 207.195 94.6697Z" fill="#211D1D"/>
<path d="M214.46 98.8209C214.89 98.9613 215.284 98.7783 215.694 98.6614C216.199 98.5181 216.673 98.7425 217.133 98.9426C218.078 99.3537 219 99.5863 220.036 99.4373C221.044 99.292 221.867 98.8099 222.633 98.163C223.005 97.8493 223.381 97.5084 223.839 97.3254C224.237 97.1659 224.669 97.1444 225.092 97.1874C225.986 97.2787 226.831 97.6399 227.709 97.8128C228.672 98.0019 229.53 97.9151 230.404 97.4581C230.889 97.2049 231.35 96.9382 231.901 96.8611C232.443 96.7857 232.998 96.8607 233.526 96.9829C234.473 97.2016 235.372 97.6395 236.336 97.7771C237.281 97.9122 238.248 97.8485 239.183 97.6679C240.09 97.4926 241.018 97.189 241.775 96.646C242.158 96.3717 241.79 95.7321 241.403 96.0093C240.113 96.9342 238.286 97.2219 236.732 97.0868C235.823 97.0072 234.974 96.6071 234.101 96.3681C233.085 96.0909 231.983 95.948 230.98 96.3498C230.5 96.5426 230.071 96.8477 229.587 97.0296C229.183 97.1813 228.759 97.2089 228.332 97.1675C227.451 97.0819 226.616 96.7309 225.754 96.5527C224.884 96.3729 223.996 96.3725 223.203 96.8185C222.355 97.295 221.752 98.0993 220.834 98.4678C219.784 98.8882 218.677 98.8111 217.651 98.3696C217.147 98.1529 216.604 97.8643 216.042 97.8635C215.798 97.8627 215.557 97.9297 215.327 98.0043C215.111 98.0746 214.883 98.1841 214.656 98.1103C214.204 97.9625 214.01 98.6744 214.46 98.8209Z" fill="#211D1D"/>
<path d="M198.371 79.2365C200.311 79.5952 201.787 78.0795 202.833 76.6562C203.372 75.9221 203.887 75.1547 204.589 74.563C205.305 73.9595 206.215 73.6612 207.138 73.5756C208.227 73.4742 209.324 73.6048 210.404 73.7461C210.603 73.772 210.771 73.5582 210.773 73.3776C210.775 73.1572 210.601 73.0347 210.404 73.0091C208.586 72.7713 206.595 72.5615 204.912 73.4596C203.265 74.3386 202.551 76.121 201.278 77.3875C200.574 78.0884 199.606 78.7178 198.567 78.5259C198.103 78.4399 197.904 79.1501 198.371 79.2365Z" fill="#211D1D"/>
<path d="M211.43 65.8008C212.35 65.3836 213.462 65.8503 213.796 66.804C214.158 67.838 213.426 68.8124 212.877 69.6302C211.81 71.2194 210.556 72.8995 210.774 74.9258C210.879 75.9014 211.292 76.7796 212.097 77.364C212.482 77.6432 212.85 77.004 212.47 76.7277C211.758 76.2106 211.484 75.3093 211.487 74.4623C211.491 73.4445 211.901 72.52 212.417 71.6613C213.397 70.0323 215.609 67.8847 214.145 65.9091C213.425 64.9368 212.14 64.6738 211.057 65.164C210.626 65.3596 211 65.9952 211.43 65.8008Z" fill="#211D1D"/>
<path d="M219.49 63.3394C220.559 64.0809 221.217 65.3495 221.232 66.6461C221.238 67.1201 221.975 67.1213 221.97 66.6461C221.952 65.0764 221.149 63.5951 219.862 62.7027C219.698 62.5895 219.453 62.6727 219.357 62.835C219.25 63.0184 219.326 63.2254 219.49 63.3394Z" fill="#211D1D"/>
<path d="M224.09 65.5159C222.398 65.3235 220.982 66.9354 220.487 68.3956C220.36 68.7698 220.282 69.1817 220.321 69.5778C220.34 69.7758 220.476 69.9463 220.689 69.9463C220.874 69.9463 221.078 69.777 221.058 69.5778C221.049 69.4832 221.046 69.3891 221.05 69.2945C221.052 69.2446 221.056 69.1947 221.061 69.1452C221.07 69.0636 221.056 69.1651 221.07 69.0896C221.105 68.885 221.162 68.6846 221.234 68.4898C221.376 68.1059 221.614 67.6976 221.886 67.3644C222.444 66.6814 223.21 66.153 224.09 66.2528C224.288 66.2756 224.459 66.0674 224.459 65.8844C224.459 65.6664 224.289 65.5382 224.09 65.5159Z" fill="#211D1D"/>
<path d="M220.488 68.5287C219.187 69.0048 218.239 70.0603 217.727 71.3285C217.112 72.8504 217.233 74.5658 217.605 76.1303C217.715 76.5917 218.426 76.3961 218.316 75.9343C217.986 74.5463 217.875 73.0586 218.372 71.695C218.766 70.6151 219.587 69.6411 220.684 69.2393C221.126 69.0774 220.935 68.3648 220.488 68.5287Z" fill="#211D1D"/>
<path d="M196.682 71.7648C196.869 70.7251 197.261 69.7231 197.951 68.9114C198.567 68.1858 199.355 67.64 200.223 67.2561C201.173 66.8356 202.254 66.5686 203.294 66.5832C203.977 66.5925 204.65 66.7208 205.29 66.957C205.584 67.0653 205.868 67.2431 206.192 67.2216C206.495 67.2013 206.698 67.0012 206.864 66.7662C207.584 65.7472 208.871 65.7334 210.013 65.7626C210.488 65.7752 210.488 65.0378 210.013 65.0256C208.937 64.9976 207.717 65.0264 206.828 65.7159C206.618 65.8791 206.448 66.0706 206.297 66.289C206.207 66.4205 206.19 66.4838 206.038 66.4692C205.855 66.4517 205.608 66.2894 205.435 66.2269C204.785 65.9939 204.093 65.8702 203.404 65.8482C201.322 65.7829 199.004 66.6745 197.585 68.2138C196.723 69.1496 196.194 70.3221 195.971 71.5688C195.888 72.0326 196.599 72.2315 196.682 71.7648Z" fill="#211D1D"/>
<path d="M224.563 65.7472C224.762 64.5942 225.542 63.7262 226.583 63.2327C227.402 62.8439 228.524 62.6365 229.379 63.0107C229.81 63.199 230.186 62.5639 229.751 62.374C228.639 61.8874 227.342 62.0765 226.265 62.5704C225.047 63.1296 224.083 64.2103 223.852 65.5512C223.772 66.015 224.483 66.2147 224.563 65.7472Z" fill="#211D1D"/>
<path d="M218.623 77.1692C219.506 77.1838 220.378 77.6367 220.866 78.3786C221.391 79.176 221.457 80.2344 221.033 81.0903C220.824 81.5144 221.46 81.8882 221.67 81.4624C222.207 80.3773 222.177 79.0303 221.503 78.0064C220.87 77.0442 219.774 76.4509 218.623 76.4318C218.149 76.4241 218.149 77.1615 218.623 77.1692Z" fill="#211D1D"/>
<path d="M212.727 78.142C213.884 78.6992 214.139 80.1654 213.229 81.0785C212.831 81.4783 212.36 81.8443 212.251 82.4328C212.146 82.9956 212.343 83.5922 212.785 83.9623C213.146 84.2655 213.671 83.7464 213.306 83.4412C212.846 83.0557 212.878 82.4831 213.271 82.0639C213.714 81.5919 214.169 81.2258 214.393 80.5936C214.819 79.3996 214.232 78.0506 213.099 77.5056C212.673 77.3007 212.299 77.9362 212.727 78.142Z" fill="#211D1D"/>
<path d="M204.071 79.6995C204.537 79.926 205.023 80.167 205.374 80.5574C205.775 81.0022 205.669 81.5537 205.745 82.1028C205.897 83.2006 206.596 84.1908 207.574 84.7107C207.993 84.9331 208.366 84.2971 207.947 84.0739C207.471 83.8211 207.083 83.4514 206.813 82.9839C206.527 82.4875 206.463 81.9843 206.439 81.4227C206.415 80.8435 206.216 80.3448 205.799 79.9357C205.413 79.5567 204.926 79.2977 204.444 79.0628C204.018 78.8558 203.644 79.4913 204.071 79.6995Z" fill="#211D1D"/>
<path d="M196.69 78.8075C194.74 78.4926 192.647 78.6347 191.077 79.9528C189.76 81.0591 189.203 82.9145 189.993 84.4964C190.398 85.3089 191.129 85.7756 191.951 86.1011C192.731 86.4103 193.706 86.6388 194.178 87.4062C194.439 87.8311 194.329 88.2674 194.259 88.7308C194.192 89.174 194.203 89.6135 194.301 90.0514C194.497 90.9267 195.024 91.7234 195.678 92.3264C196.268 92.8707 197.005 93.3402 197.753 93.6369C198.545 93.951 199.424 93.9733 200.265 93.9753C200.739 93.9765 200.74 93.2395 200.265 93.2383C199.578 93.2367 198.875 93.2278 198.214 93.0204C197.649 92.8426 197.128 92.5046 196.646 92.1674C195.993 91.7104 195.426 91.0513 195.144 90.3005C195.008 89.9377 194.937 89.5579 194.951 89.1699C194.968 88.7182 195.127 88.2808 195.08 87.8254C195 87.0414 194.422 86.444 193.767 86.0633C193.027 85.634 192.153 85.496 191.431 85.0325C190.091 84.1722 190.104 82.2591 191 81.0895C192.278 79.4211 194.565 79.2069 196.493 79.5181C196.958 79.5932 197.158 78.883 196.69 78.8075Z" fill="#211D1D"/>
<path d="M193.055 79.0137C192.715 77.3908 192.449 75.4924 193.415 74.0237C194.218 72.805 195.815 72.1881 197.229 72.514C197.691 72.6207 197.889 71.9101 197.425 71.803C195.727 71.4118 193.903 72.1025 192.878 73.5083C191.682 75.147 191.954 77.351 192.343 79.2093C192.44 79.6736 193.152 79.4772 193.055 79.0137Z" fill="#211D1D"/>
<path d="M235.246 65.9753C235.817 68.2098 234.78 70.6038 233.01 72.0067C232.085 72.74 230.945 73.0314 229.934 73.6093C228.865 74.2201 228.104 75.2716 228.236 76.5495C228.382 77.9679 229.572 79.0328 230.99 79.0794C231.465 79.0953 231.464 78.3583 230.99 78.3425C229.792 78.3027 228.866 77.276 228.967 76.0812C229.071 74.8463 230.186 74.2534 231.2 73.8114C232.223 73.365 233.176 72.9097 233.99 72.1252C234.788 71.3562 235.401 70.3992 235.773 69.3562C236.182 68.2102 236.259 66.9598 235.957 65.7793C235.84 65.3199 235.128 65.5147 235.246 65.9753Z" fill="#211D1D"/>
<path d="M235.39 70.4576C237.804 69.355 240.772 70.262 242.131 72.5383C242.772 73.6125 243.005 74.832 242.857 76.069C242.703 77.3632 242.287 78.6314 241.808 79.8379C241.33 81.0424 240.755 82.2124 240.105 83.3337C239.867 83.7448 240.505 84.1165 240.743 83.7058C242.074 81.4068 243.25 78.8169 243.583 76.1615C243.933 73.3836 242.387 70.6216 239.731 69.6318C238.205 69.0636 236.492 69.1476 235.018 69.8209C234.586 70.0177 234.961 70.6537 235.39 70.4576Z" fill="#211D1D"/>
<path d="M242.187 96.3717C244.59 94.8365 245.829 91.82 245.203 89.0401C245.084 89.1955 244.966 89.3513 244.847 89.5068C246.212 89.4836 247.545 88.9293 248.505 87.9541C249.501 86.9427 250.003 85.5447 250.105 84.1478C250.294 81.5664 248.965 78.7219 246.339 77.9557C244.977 77.558 243.489 77.7771 242.37 78.6675C241.999 78.963 242.524 79.4816 242.892 79.189C243.723 78.5275 244.865 78.3664 245.883 78.599C246.968 78.8465 247.875 79.521 248.477 80.4515C249.719 82.3756 249.743 85.2298 248.307 87.0665C247.481 88.1237 246.184 88.747 244.847 88.7694C244.599 88.7738 244.439 89.0011 244.491 89.2361C245.043 91.6848 243.93 94.3836 241.815 95.735C241.416 95.9898 241.786 96.6282 242.187 96.3717Z" fill="#211D1D"/>
<path d="M245.147 89.8379C246.464 90.167 247.603 91.0274 248.297 92.1925C249.071 93.4923 249.239 95.0775 248.877 96.5336C248.762 96.9942 249.473 97.1906 249.588 96.7296C249.997 95.0852 249.809 93.2886 248.934 91.8207C248.146 90.4969 246.841 89.501 245.343 89.1269C244.883 89.012 244.686 89.7226 245.147 89.8379Z" fill="#211D1D"/>
<path d="M249.198 93.9059C250.204 94.356 251.291 94.4976 252.379 94.3202C252.576 94.2882 252.685 94.0443 252.636 93.8669C252.579 93.6579 252.38 93.5776 252.183 93.6096C251.309 93.7521 250.379 93.6307 249.571 93.2692C249.389 93.188 249.174 93.2168 249.066 93.4015C248.974 93.5589 249.015 93.8239 249.198 93.9059Z" fill="#211D1D"/>
<path d="M240.567 104.549C243.007 104.609 244.712 102.312 244.609 99.9969C244.453 100.115 244.297 100.234 244.142 100.352C246.968 101.336 250.271 100.56 252.376 98.4394C252.711 98.1021 252.19 97.5807 251.855 97.9183C249.923 99.8638 246.924 100.542 244.338 99.6414C244.116 99.5643 243.861 99.7681 243.871 99.9969C243.956 101.917 242.617 103.862 240.567 103.812C240.092 103.8 240.092 104.537 240.567 104.549Z" fill="#211D1D"/>
<path d="M211.554 96.6846C212.31 97.7694 213.458 98.5551 214.758 98.8278C214.952 98.8688 215.156 98.7705 215.211 98.5705C215.262 98.3874 215.15 98.1582 214.954 98.1172C213.847 97.8846 212.84 97.2434 212.191 96.3125C212.077 96.1493 211.868 96.0742 211.686 96.1802C211.525 96.2747 211.439 96.5202 211.554 96.6846Z" fill="#211D1D"/>
<path d="M213.122 97.8988C212.094 98.7243 211.659 100.189 212.035 101.446C212.171 101.899 212.883 101.706 212.747 101.25C212.442 100.232 212.799 99.0989 213.643 98.4203C213.799 98.2953 213.773 98.0291 213.643 97.8988C213.49 97.7454 213.278 97.7738 213.122 97.8988Z" fill="#211D1D"/>
<path d="M206.961 93.5074C206.779 93.981 206.707 94.5041 206.752 95.0093C206.761 95.1088 206.787 95.1972 206.86 95.2699C206.924 95.3336 207.029 95.3819 207.121 95.3778C207.306 95.3697 207.508 95.2147 207.49 95.0093C207.479 94.8884 207.474 94.7671 207.477 94.6457C207.479 94.5938 207.481 94.5418 207.485 94.4899C207.488 94.4554 207.491 94.4209 207.495 94.3864C207.498 94.36 207.519 94.2849 207.495 94.3811C207.522 94.2724 207.533 94.1591 207.561 94.0496C207.591 93.9323 207.628 93.8166 207.672 93.7034C207.741 93.5228 207.596 93.2911 207.414 93.2497C207.204 93.2018 207.034 93.3142 206.961 93.5074Z" fill="#211D1D"/>
<path d="M189.727 85.4696C187.577 87.4431 188.747 90.7644 190.293 92.7128C191.768 94.5714 194.055 95.9594 196.474 95.9699C198.01 95.9768 199.425 95.3839 200.623 94.4505C200.997 94.1591 200.472 93.6409 200.101 93.9294C199.16 94.6628 198.026 95.1562 196.826 95.2236C195.756 95.2837 194.688 95.0341 193.729 94.5637C191.827 93.6311 190.245 91.9251 189.572 89.9061C189.128 88.5782 189.15 86.9987 190.248 85.9907C190.599 85.6692 190.076 85.149 189.727 85.4696Z" fill="#211D1D"/>
<path d="M189.693 85.7512C188.252 84.2598 187.436 82.2144 187.483 80.1382C187.529 78.1217 188.407 76.1417 189.856 74.7403C190.214 74.3946 190.617 74.0845 190.881 73.6552C191.172 73.1844 191.201 72.6292 191.315 72.1017C191.523 71.1374 191.9 70.2202 192.423 69.3842C193.508 67.6538 195.202 66.3734 197.165 65.8048C198.187 65.509 199.254 65.4035 200.314 65.5001C200.86 65.55 201.412 65.6912 201.938 65.4656C202.392 65.2708 202.693 64.8755 203.03 64.5314C204.323 63.21 206.141 62.4324 207.981 62.3302C208.914 62.2782 209.846 62.3927 210.732 62.6913C211.254 62.8671 211.743 63.0566 212.282 62.8285C212.72 62.6435 213.043 62.2786 213.402 61.9783C214.746 60.8497 216.48 60.1943 218.22 60.0364C219.989 59.8757 221.81 60.1862 223.387 61.0169C223.78 61.2243 224.159 61.4617 224.515 61.7295C224.881 62.0055 225.21 62.3781 225.659 62.5193C226.124 62.6658 226.572 62.4596 227.027 62.3789C227.408 62.3107 227.803 62.2827 228.19 62.3078C228.47 62.3257 228.886 62.3707 229.065 62.6228C229.337 63.0067 229.976 62.639 229.702 62.2506C229.219 61.5692 228.278 61.5189 227.515 61.5794C227.058 61.6159 226.637 61.7373 226.19 61.8196C225.698 61.9097 225.312 61.4166 224.956 61.1451C223.47 60.0129 221.633 59.3997 219.777 59.2792C217.935 59.1594 216.048 59.5429 214.417 60.4139C214.011 60.6302 213.624 60.8785 213.258 61.1561C212.881 61.4426 212.552 61.8213 212.151 62.07C211.657 62.3756 211.123 62.029 210.626 61.8858C210.16 61.7519 209.682 61.6666 209.199 61.6188C207.269 61.4264 205.247 61.9483 203.652 63.0525C203.243 63.3358 202.857 63.6548 202.508 64.0103C202.148 64.378 201.844 64.8451 201.28 64.8589C200.722 64.8727 200.16 64.7322 199.598 64.7282C199.052 64.7241 198.506 64.7745 197.968 64.8654C195.866 65.2205 193.904 66.332 192.541 67.974C191.88 68.771 191.356 69.6634 190.984 70.6305C190.802 71.1045 190.661 71.594 190.565 72.0923C190.455 72.669 190.397 73.1795 189.973 73.619C189.61 73.9948 189.205 74.3223 188.862 74.718C188.52 75.1121 188.21 75.5374 187.945 75.9862C187.404 76.8993 187.028 77.9184 186.858 78.9658C186.518 81.0668 186.994 83.2627 188.175 85.0366C188.468 85.4777 188.803 85.8912 189.171 86.2727C189.502 86.6144 190.023 86.0929 189.693 85.7512Z" fill="#211D1D"/>
<path d="M199.138 72.5732C200.676 72.643 202.187 73.2023 203.39 74.1665C203.545 74.2911 203.76 74.3183 203.912 74.1665C204.041 74.0374 204.068 73.7704 203.912 73.6454C202.548 72.5521 200.886 71.9154 199.138 71.8362C198.664 71.8147 198.665 72.5517 199.138 72.5732Z" fill="#211D1D"/>
<path d="M200.765 70.2697C200.617 71.0408 200.715 71.8175 201.048 72.5282C201.13 72.7035 201.396 72.7615 201.553 72.6604C201.733 72.5444 201.773 72.3435 201.685 72.156C201.68 72.1446 201.625 72.0184 201.652 72.0846C201.639 72.0521 201.626 72.0197 201.614 71.9872C201.586 71.9109 201.561 71.8334 201.538 71.7551C201.516 71.6767 201.497 71.5976 201.481 71.5176C201.474 71.4836 201.468 71.4491 201.462 71.4146C201.458 71.3918 201.454 71.3687 201.451 71.346C201.455 71.3805 201.456 71.3841 201.453 71.3573C201.438 71.2007 201.427 71.0449 201.431 70.8874C201.434 70.8058 201.44 70.7247 201.448 70.6435C201.458 70.5303 201.435 70.7157 201.453 70.6033C201.46 70.5571 201.468 70.5116 201.477 70.4657C201.513 70.277 201.424 70.0591 201.219 70.0124C201.037 69.971 200.805 70.0672 200.765 70.2697Z" fill="#211D1D"/>
<path d="M248.16 88.2718C249.201 88.1622 250.254 88.4922 251.022 89.2093C251.368 89.5331 251.891 89.0128 251.543 88.6882C250.643 87.8473 249.39 87.4054 248.16 87.5348C247.962 87.5555 247.791 87.6894 247.791 87.9033C247.791 88.0863 247.961 88.2929 248.16 88.2718Z" fill="#211D1D"/>
<path d="M250.879 88.6894C251.378 88.1075 251.932 87.5734 252.53 87.0941C252.682 86.9732 252.666 86.6976 252.53 86.573C252.37 86.4257 252.17 86.444 252.009 86.573C251.41 87.0523 250.857 87.5864 250.357 88.1683C250.232 88.3144 250.203 88.5478 250.357 88.6894C250.495 88.816 250.745 88.8457 250.879 88.6894Z" fill="#211D1D"/>
<path d="M213.977 61.6987C215.62 61.1297 217.378 61.6252 218.797 62.5326C219.199 62.7891 219.569 62.1512 219.17 61.8959C217.596 60.8903 215.598 60.3586 213.781 60.9877C213.335 61.1423 213.527 61.8545 213.977 61.6987Z" fill="#211D1D"/>
<path d="M230.829 76.2143C230.698 77.308 230.895 78.4123 231.358 79.4086C231.442 79.5892 231.702 79.6346 231.863 79.5409C232.048 79.4325 232.079 79.2178 231.995 79.0368C231.587 78.1566 231.452 77.1745 231.566 76.2143C231.59 76.0163 231.38 75.8458 231.198 75.8458C230.979 75.8458 230.852 76.0158 230.829 76.2143Z" fill="#211D1D"/>
<path d="M229.659 62.9214C231.817 61.5777 234.866 63.2834 235.217 65.6953C235.285 66.1632 235.996 65.9643 235.928 65.4996C235.508 62.6158 231.814 60.7109 229.287 62.2851C228.885 62.5355 229.255 63.1735 229.659 62.9214Z" fill="#211D1D"/>
<path d="M235.668 66.0658C237.299 65.606 239.085 65.787 240.591 66.5694C242.089 67.3478 243.224 68.7016 243.764 70.2986C244.068 71.1979 244.179 72.1374 244.094 73.0825C244.071 73.3467 244.348 73.4697 244.561 73.438C246.442 73.158 248.371 74.2225 249.365 75.7963C250.507 77.6055 250.473 79.9162 249.695 81.8553C249.639 81.9945 249.73 82.2071 249.865 82.2717C251.525 83.0687 252.437 85.0556 251.925 86.8307C251.864 87.0417 252.04 87.323 252.281 87.2974C253.797 87.1375 253.933 89.327 253.996 90.3553C254.07 91.5493 253.851 93.1425 252.546 93.6137C252.239 93.7241 252.189 94.1023 252.458 94.2874C253.134 94.7516 253.514 95.6351 253.341 96.4443C253.169 97.2422 252.532 97.8672 251.748 98.0648C251.537 98.1184 251.385 98.4146 251.528 98.6062C252.537 99.9592 251.129 101.485 250.135 102.338C248.988 103.322 247.45 104.141 245.902 103.759C245.441 103.645 245.244 104.356 245.705 104.47C247.563 104.928 249.366 103.989 250.734 102.792C251.402 102.207 252.043 101.531 252.382 100.697C252.704 99.9052 252.69 98.9373 252.165 98.2344C252.092 98.4146 252.018 98.5952 251.945 98.7758C252.992 98.5112 253.873 97.6298 254.069 96.5551C254.274 95.4286 253.766 94.2939 252.83 93.6506C252.801 93.8755 252.771 94.0999 252.742 94.3243C254.43 93.7156 254.844 91.8419 254.726 90.2384C254.663 89.3834 254.594 88.4414 254.174 87.6756C253.805 87.0016 253.074 86.4768 252.281 86.5604C252.399 86.7159 252.518 86.8713 252.636 87.0267C253.233 84.9562 252.187 82.5712 250.237 81.6349C250.293 81.7737 250.35 81.9125 250.406 82.0513C251.091 80.3452 251.221 78.3599 250.58 76.6185C249.982 74.9911 248.74 73.6913 247.126 73.0436C246.246 72.6897 245.302 72.5878 244.365 72.727C244.521 72.8455 244.676 72.964 244.832 73.0825C244.996 71.2425 244.43 69.366 243.305 67.9042C242.162 66.4201 240.459 65.44 238.607 65.1657C237.558 65.0106 236.494 65.0666 235.472 65.3548C235.016 65.4834 235.21 66.1948 235.668 66.0658Z" fill="#211D1D"/>
</svg>
